<svg version="1.1" xmlns="http://www.w3.org/2000/svg" xmlns:xlink="http://www.w3.org/1999/xlink" width="357.4000244140625" height="246"><defs/><g><g transform="translate(-934,-30) scale(1,1)"><rect fill="#C0C0C0" stroke="none" x="951" y="47" width="71.736328125" height="39" opacity="0.2"/></g><g transform="translate(-934,-30) scale(1,1)"><rect fill="#d6adff" stroke="none" x="944" y="40" width="71.736328125" height="39"/></g><g transform="translate(-934,-30) scale(1,1)"><path fill="none" stroke="#383838" d="M 944 40 L 1015.736328125 40 L 1015.736328125 79 L 944 79 L 944 40 Z Z" stroke-miterlimit="10"/></g><g transform="translate(-934,-30) scale(1,1)"><g><path fill="none" stroke="none"/><text fill="#383838" stroke="none" font-family="Source Sans Pro" font-size="13px" font-style="normal" font-weight="bold" text-decoration="none" x="963.9236526489258" y="59.5">Client</text></g></g><g transform="translate(-934,-30) scale(1,1)"><path fill="none" stroke="#000000" d="M 980.5 80 L 980.5 266" stroke-miterlimit="10" stroke-dasharray="3"/></g><g transform="translate(-934,-30) scale(1,1)"><rect fill="#C0C0C0" stroke="none" x="1207" y="47" width="81.4000244140625" height="39" opacity="0.2"/></g><g transform="translate(-934,-30) scale(1,1)"><rect fill="#d6adff" stroke="none" x="1200" y="40" width="81.4000244140625" height="39"/></g><g transform="translate(-934,-30) scale(1,1)"><path fill="none" stroke="#383838" d="M 1200 40 L 1281.4000244140625 40 L 1281.4000244140625 79 L 1200 79 L 1200 40 Z Z" stroke-miterlimit="10"/></g><g transform="translate(-934,-30) scale(1,1)"><g><path fill="none" stroke="none"/><text fill="#383838" stroke="none" font-family="Source Sans Pro" font-size="13px" font-style="normal" font-weight="bold" text-decoration="none" x="1217.6054992675781" y="59.5">Servidor</text></g></g><g transform="translate(-934,-30) scale(1,1)"><path fill="none" stroke="#000000" d="M 1241.5 80 L 1241.5 266" stroke-miterlimit="10" stroke-dasharray="3"/></g><g transform="translate(-934,-30) scale(1,1)"><path fill="none" stroke="#383838" d="M 980 104 L 1234 104" stroke-miterlimit="10"/></g><g transform="translate(-934,-30) scale(1,1)"><path fill="#383838" stroke="none" d="M 1223.837325142376 108.20951775601598 L 1234 104 L 1223.837325142376 99.79048224398402"/></g><g transform="translate(-934,-30) scale(1,1)"><path fill="none" stroke="#383838" d="M 1223.837325142376 108.20951775601598 L 1234 104 L 1223.837325142376 99.79048224398402 L 1223.837325142376 108.20951775601598" stroke-miterlimit="10"/></g><g transform="translate(-934,-30) scale(1,1)"><g><path fill="none" stroke="none"/><text fill="#383838" stroke="none" font-family="Source Sans Pro" font-size="13px" font-style="normal" font-weight="normal" text-decoration="none" x="1064.250991821289" y="100.5">1 : Register Sale</text></g></g><g transform="translate(-934,-30) scale(1,1)"><rect fill="#d6adff" stroke="none" x="1234" y="104" width="13" height="28"/></g><g transform="translate(-934,-30) scale(1,1)"><path fill="none" stroke="#383838" d="M 1234 104 L 1247 104 L 1247 132 L 1234 132 L 1234 104 Z Z" stroke-miterlimit="10"/></g><g transform="translate(-934,-30) scale(1,1)"><path fill="none" stroke="#383838" d="M 980 136 L 1234 136" stroke-miterlimit="10"/></g><g transform="translate(-934,-30) scale(1,1)"><path fill="#383838" stroke="none" d="M 1223.837325142376 140.209517756016 L 1234 136 L 1223.837325142376 131.790482243984"/></g><g transform="translate(-934,-30) scale(1,1)"><path fill="none" stroke="#383838" d="M 1223.837325142376 140.209517756016 L 1234 136 L 1223.837325142376 131.790482243984 L 1223.837325142376 140.209517756016" stroke-miterlimit="10"/></g><g transform="translate(-934,-30) scale(1,1)"><g><path fill="none" stroke="none"/><text fill="#383838" stroke="none" font-family="Source Sans Pro" font-size="13px" font-style="normal" font-weight="normal" text-decoration="none" x="1062.2839813232422" y="132.5">2 : Product Code</text></g></g><g transform="translate(-934,-30) scale(1,1)"><rect fill="#d6adff" stroke="none" x="1234" y="136" width="13" height="28"/></g><g transform="translate(-934,-30) scale(1,1)"><path fill="none" stroke="#383838" d="M 1234 136 L 1247 136 L 1247 164 L 1234 164 L 1234 136 Z Z" stroke-miterlimit="10"/></g><g transform="translate(-934,-30) scale(1,1)"><path fill="none" stroke="#383838" d="M 1241 168 L 986 168" stroke-miterlimit="10"/></g><g transform="translate(-934,-30) scale(1,1)"><path fill="#383838" stroke="none" d="M 996.1626748576241 163.790482243984 L 986 168 L 996.1626748576241 172.209517756016"/></g><g transform="translate(-934,-30) scale(1,1)"><path fill="none" stroke="#383838" d="M 996.1626748576241 163.790482243984 L 986 168 L 996.1626748576241 172.209517756016 L 996.1626748576241 163.790482243984" stroke-miterlimit="10"/></g><g transform="translate(-934,-30) scale(1,1)"><g><path fill="none" stroke="none"/><text fill="#383838" stroke="none" font-family="Source Sans Pro" font-size="13px" font-style="normal" font-weight="normal" text-decoration="none" x="1095.9677047729492" y="184.5">3 : OK</text></g></g><g transform="translate(-934,-30) scale(1,1)"><rect fill="#d6adff" stroke="none" x="973" y="168" width="13" height="28"/></g><g transform="translate(-934,-30) scale(1,1)"><path fill="none" stroke="#383838" d="M 973 168 L 986 168 L 986 196 L 973 196 L 973 168 Z Z" stroke-miterlimit="10"/></g><g transform="translate(-934,-30) scale(1,1)"><path fill="none" stroke="#383838" d="M 1241 206 L 986 206" stroke-miterlimit="10"/></g><g transform="translate(-934,-30) scale(1,1)"><path fill="#383838" stroke="none" d="M 996.1626748576241 201.790482243984 L 986 206 L 996.1626748576241 210.209517756016"/></g><g transform="translate(-934,-30) scale(1,1)"><path fill="none" stroke="#383838" d="M 996.1626748576241 201.790482243984 L 986 206 L 996.1626748576241 210.209517756016 L 996.1626748576241 201.790482243984" stroke-miterlimit="10"/></g><g transform="translate(-934,-30) scale(1,1)"><g><path fill="none" stroke="none"/><text fill="#383838" stroke="none" font-family="Source Sans Pro" font-size="13px" font-style="normal" font-weight="normal" text-decoration="none" x="1090.397201538086" y="222.5">4 : Price</text></g></g><g transform="translate(-934,-30) scale(1,1)"><rect fill="#d6adff" stroke="none" x="973" y="206" width="13" height="28"/></g><g transform="translate(-934,-30) scale(1,1)"><path fill="none" stroke="#383838" d="M 973 206 L 986 206 L 986 234 L 973 234 L 973 206 Z Z" stroke-miterlimit="10"/></g></g></svg>
