<svg version="1.1" xmlns="http://www.w3.org/2000/svg" xmlns:xlink="http://www.w3.org/1999/xlink" width="309.41015625" height="326"><defs/><g><g transform="translate(-1038,-30) scale(1,1)"><rect fill="#C0C0C0" stroke="none" x="1055" y="47" width="71.736328125" height="39" opacity="0.2"/></g><g transform="translate(-1038,-30) scale(1,1)"><rect fill="#d6adff" stroke="none" x="1048" y="40" width="71.736328125" height="39"/></g><g transform="translate(-1038,-30) scale(1,1)"><path fill="none" stroke="#383838" d="M 1048 40 L 1119.736328125 40 L 1119.736328125 79 L 1048 79 L 1048 40 Z Z" stroke-miterlimit="10"/></g><g transform="translate(-1038,-30) scale(1,1)"><g><path fill="none" stroke="none"/><text fill="#383838" stroke="none" font-family="Source Sans Pro" font-size="13px" font-style="normal" font-weight="bold" text-decoration="none" x="1067.9236526489258" y="59.5">Client</text></g></g><g transform="translate(-1038,-30) scale(1,1)"><path fill="none" stroke="#000000" d="M 1084.5 80 L 1084.5 346" stroke-miterlimit="10" stroke-dasharray="3"/></g><g transform="translate(-1038,-30) scale(1,1)"><rect fill="#C0C0C0" stroke="none" x="1263" y="47" width="81.41015625" height="39" opacity="0.2"/></g><g transform="translate(-1038,-30) scale(1,1)"><rect fill="#d6adff" stroke="none" x="1256" y="40" width="81.41015625" height="39"/></g><g transform="translate(-1038,-30) scale(1,1)"><path fill="none" stroke="#383838" d="M 1256 40 L 1337.41015625 40 L 1337.41015625 79 L 1256 79 L 1256 40 Z Z" stroke-miterlimit="10"/></g><g transform="translate(-1038,-30) scale(1,1)"><g><path fill="none" stroke="none"/><text fill="#383838" stroke="none" font-family="Source Sans Pro" font-size="13px" font-style="normal" font-weight="bold" text-decoration="none" x="1273.6105651855469" y="59.5">Servidor</text></g></g><g transform="translate(-1038,-30) scale(1,1)"><path fill="none" stroke="#000000" d="M 1297.5 80 L 1297.5 346" stroke-miterlimit="10" stroke-dasharray="3"/></g><g transform="translate(-1038,-30) scale(1,1)"><path fill="none" stroke="#383838" d="M 1084 120 L 1290 120" stroke-miterlimit="10"/></g><g transform="translate(-1038,-30) scale(1,1)"><path fill="#383838" stroke="none" d="M 1279.837325142376 124.20951775601598 L 1290 120 L 1279.837325142376 115.79048224398402"/></g><g transform="translate(-1038,-30) scale(1,1)"><path fill="none" stroke="#383838" d="M 1279.837325142376 124.20951775601598 L 1290 120 L 1279.837325142376 115.79048224398402 L 1279.837325142376 124.20951775601598" stroke-miterlimit="10"/></g><g transform="translate(-1038,-30) scale(1,1)"><g><path fill="none" stroke="none"/><text fill="#383838" stroke="none" font-family="Source Sans Pro" font-size="13px" font-style="normal" font-weight="normal" text-decoration="none" x="1152.621726989746" y="116.5">1 : Disconnet</text></g></g><g transform="translate(-1038,-30) scale(1,1)"><rect fill="#d6adff" stroke="none" x="1290" y="120" width="13" height="28"/></g><g transform="translate(-1038,-30) scale(1,1)"><path fill="none" stroke="#383838" d="M 1290 120 L 1303 120 L 1303 148 L 1290 148 L 1290 120 Z Z" stroke-miterlimit="10"/></g><g transform="translate(-1038,-30) scale(1,1)"><path fill="none" stroke="#383838" d="M 1297 152 L 1090 152" stroke-miterlimit="10"/></g><g transform="translate(-1038,-30) scale(1,1)"><path fill="#383838" stroke="none" d="M 1100.162674857624 147.790482243984 L 1090 152 L 1100.162674857624 156.209517756016"/></g><g transform="translate(-1038,-30) scale(1,1)"><path fill="none" stroke="#383838" d="M 1100.162674857624 147.790482243984 L 1090 152 L 1100.162674857624 156.209517756016 L 1100.162674857624 147.790482243984" stroke-miterlimit="10"/></g><g transform="translate(-1038,-30) scale(1,1)"><g><path fill="none" stroke="none"/><text fill="#383838" stroke="none" font-family="Source Sans Pro" font-size="13px" font-style="normal" font-weight="normal" text-decoration="none" x="1175.9677047729492" y="168.5">2 : OK</text></g></g><g transform="translate(-1038,-30) scale(1,1)"><rect fill="#d6adff" stroke="none" x="1077" y="152" width="13" height="28"/></g><g transform="translate(-1038,-30) scale(1,1)"><path fill="none" stroke="#383838" d="M 1077 152 L 1090 152 L 1090 180 L 1077 180 L 1077 152 Z Z" stroke-miterlimit="10"/></g></g></svg>
