<svg version="1.1" xmlns="http://www.w3.org/2000/svg" xmlns:xlink="http://www.w3.org/1999/xlink" width="1183.0849609375" height="777"><defs/><g><g transform="translate(-886,-542) scale(1,1)"><rect fill="#C0C0C0" stroke="none" x="903" y="799" width="512" height="235" opacity="0.2"/></g><g transform="translate(-886,-542) scale(1,1)"><rect fill="#d6adff" stroke="none" x="896" y="792" width="512" height="235"/></g><g transform="translate(-886,-542) scale(1,1)"><path fill="none" stroke="#383838" d="M 896 792 L 1408 792 L 1408 1027 L 896 1027 L 896 792 Z Z" stroke-miterlimit="10"/></g><g transform="translate(-886,-542) scale(1,1)"><path fill="none" stroke="#383838" d="M 896 832 L 1408 832" stroke-miterlimit="10"/></g><g transform="translate(-886,-542) scale(1,1)"><path fill="none" stroke="#383838" d="M 896 870 L 1408 870" stroke-miterlimit="10"/></g><g transform="translate(-886,-542) scale(1,1)"><g><path fill="none" stroke="none"/><text fill="#383838" stroke="none" font-family="Source Sans Pro" font-size="13px" font-style="normal" font-weight="bold" text-decoration="none" x="1128.4829788208008" y="811.5">Almacen</text></g></g><g transform="translate(-886,-542) scale(1,1)"><g><path fill="none" stroke="none"/><text fill="#383838" stroke="none" font-family="Source Sans Pro" font-size="13px" font-style="normal" font-weight="normal" text-decoration="none" x="1114.1374588012695" y="826.5">(from mundo)</text></g></g><g transform="translate(-886,-542) scale(1,1)"><g><path fill="none" stroke="none"/><text fill="#383838" stroke="none" font-family="Source Sans Pro" font-size="13px" font-style="normal" font-weight="normal" text-decoration="none" x="901" y="849.5">-conexion: Connection</text></g></g><g transform="translate(-886,-542) scale(1,1)"><g><path fill="none" stroke="none"/><text fill="#383838" stroke="none" font-family="Source Sans Pro" font-size="13px" font-style="normal" font-weight="normal" text-decoration="none" x="901" y="864.5">-configuracion: Properties</text></g></g><g transform="translate(-886,-542) scale(1,1)"><g><path fill="none" stroke="none"/><text fill="#383838" stroke="none" font-family="Source Sans Pro" font-size="13px" font-style="normal" font-weight="normal" text-decoration="none" x="901" y="887.5">«constructor»+Almacen(propiedades: Properties)</text></g></g><g transform="translate(-886,-542) scale(1,1)"><g><path fill="none" stroke="none"/><text fill="#383838" stroke="none" font-family="Source Sans Pro" font-size="13px" font-style="normal" font-weight="normal" text-decoration="none" x="901" y="902.5">+conectarABD(): void</text></g></g><g transform="translate(-886,-542) scale(1,1)"><g><path fill="none" stroke="none"/><text fill="#383838" stroke="none" font-family="Source Sans Pro" font-size="13px" font-style="normal" font-weight="normal" text-decoration="none" x="901" y="917.5">+desconectarBD(): void</text></g></g><g transform="translate(-886,-542) scale(1,1)"><g><path fill="none" stroke="none"/><text fill="#383838" stroke="none" font-family="Source Sans Pro" font-size="13px" font-style="normal" font-weight="normal" text-decoration="none" x="901" y="932.5">+inicializarTabla(): void</text></g></g><g transform="translate(-886,-542) scale(1,1)"><g><path fill="none" stroke="none"/><text fill="#383838" stroke="none" font-family="Source Sans Pro" font-size="13px" font-style="normal" font-weight="normal" text-decoration="none" x="901" y="947.5">+agregarProducto(codigo: String, nombre: String, precio: int, unidades: int): void</text></g></g><g transform="translate(-886,-542) scale(1,1)"><g><path fill="none" stroke="none"/><text fill="#383838" stroke="none" font-family="Source Sans Pro" font-size="13px" font-style="normal" font-weight="normal" text-decoration="none" x="901" y="962.5">+registrarVenta(codigo: String): void</text></g></g><g transform="translate(-886,-542) scale(1,1)"><g><path fill="none" stroke="none"/><text fill="#383838" stroke="none" font-family="Source Sans Pro" font-size="13px" font-style="normal" font-weight="normal" text-decoration="none" x="901" y="977.5">+consultarProducto(codigo: String): Producto</text></g></g><g transform="translate(-886,-542) scale(1,1)"><g><path fill="none" stroke="none"/><text fill="#383838" stroke="none" font-family="Source Sans Pro" font-size="13px" font-style="normal" font-weight="normal" text-decoration="none" x="901" y="992.5">+listarProductos(): ArrayList</text></g></g><g transform="translate(-886,-542) scale(1,1)"><g><path fill="none" stroke="none"/><text fill="#383838" stroke="none" font-family="Source Sans Pro" font-size="13px" font-style="normal" font-weight="normal" text-decoration="none" x="901" y="1007.5">+metodo1(): String</text></g></g><g transform="translate(-886,-542) scale(1,1)"><g><path fill="none" stroke="none"/><text fill="#383838" stroke="none" font-family="Source Sans Pro" font-size="13px" font-style="normal" font-weight="normal" text-decoration="none" x="901" y="1022.5">+metodo2(): String</text></g></g><g transform="translate(-886,-542) scale(1,1)"><rect fill="#C0C0C0" stroke="none" x="1647" y="911" width="304.8896484375" height="72" opacity="0.2"/></g><g transform="translate(-886,-542) scale(1,1)"><rect fill="#ffc082" stroke="none" x="1640" y="904" width="304.8896484375" height="72"/></g><g transform="translate(-886,-542) scale(1,1)"><path fill="none" stroke="#383838" d="M 1640 904 L 1944.8896484375 904 L 1944.8896484375 976 L 1640 976 L 1640 904 Z Z" stroke-miterlimit="10"/></g><g transform="translate(-886,-542) scale(1,1)"><path fill="none" stroke="#383838" d="M 1640 944 L 1944.8896484375 944" stroke-miterlimit="10"/></g><g transform="translate(-886,-542) scale(1,1)"><path fill="none" stroke="#383838" d="M 1640 954 L 1944.8896484375 954" stroke-miterlimit="10"/></g><g transform="translate(-886,-542) scale(1,1)"><g><path fill="none" stroke="none"/><text fill="#383838" stroke="none" font-family="Source Sans Pro" font-size="13px" font-style="normal" font-weight="bold" text-decoration="none" x="1741.4132766723633" y="923.5">AlmacenExcepcion</text></g></g><g transform="translate(-886,-542) scale(1,1)"><g><path fill="none" stroke="none"/><text fill="#383838" stroke="none" font-family="Source Sans Pro" font-size="13px" font-style="normal" font-weight="normal" text-decoration="none" x="1754.5822830200195" y="938.5">(from mundo)</text></g></g><g transform="translate(-886,-542) scale(1,1)"><g><path fill="none" stroke="none"/><text fill="#383838" stroke="none" font-family="Source Sans Pro" font-size="13px" font-style="normal" font-weight="normal" text-decoration="none" x="1645" y="971.5">«constructor»+AlmacenExcepcion(mensaje: String)</text></g></g><g transform="translate(-886,-542) scale(1,1)"><rect fill="#C0C0C0" stroke="none" x="1495" y="559" width="571.0849609375" height="205" opacity="0.2"/></g><g transform="translate(-886,-542) scale(1,1)"><rect fill="#d6adff" stroke="none" x="1488" y="552" width="571.0849609375" height="205"/></g><g transform="translate(-886,-542) scale(1,1)"><path fill="none" stroke="#383838" d="M 1488 552 L 2059.0849609375 552 L 2059.0849609375 757 L 1488 757 L 1488 552 Z Z" stroke-miterlimit="10"/></g><g transform="translate(-886,-542) scale(1,1)"><path fill="none" stroke="#383838" d="M 1488 592 L 2059.0849609375 592" stroke-miterlimit="10"/></g><g transform="translate(-886,-542) scale(1,1)"><path fill="none" stroke="#383838" d="M 1488 690 L 2059.0849609375 690" stroke-miterlimit="10"/></g><g transform="translate(-886,-542) scale(1,1)"><g><path fill="none" stroke="none"/><text fill="#383838" stroke="none" font-family="Source Sans Pro" font-size="13px" font-style="normal" font-weight="bold" text-decoration="none" x="1712.5854415893555" y="571.5">ManejadorPuntoVenta</text></g></g><g transform="translate(-886,-542) scale(1,1)"><g><path fill="none" stroke="none"/><text fill="#383838" stroke="none" font-family="Source Sans Pro" font-size="13px" font-style="normal" font-weight="normal" text-decoration="none" x="1735.6799392700195" y="586.5">(from mundo)</text></g></g><g transform="translate(-886,-542) scale(1,1)"><g><path fill="none" stroke="none"/><text fill="#383838" stroke="none" font-family="Source Sans Pro" font-size="13px" font-style="normal" font-weight="normal" text-decoration="none" x="1493" y="609.5">+DESCONECTAR: String = "desconectar" {readOnly}</text><path fill="none" stroke="#383838" d="M 1493 609.5 L 1768.5612182617188 609.5" stroke-miterlimit="10"/></g></g><g transform="translate(-886,-542) scale(1,1)"><g><path fill="none" stroke="none"/><text fill="#383838" stroke="none" font-family="Source Sans Pro" font-size="13px" font-style="normal" font-weight="normal" text-decoration="none" x="1493" y="624.5">+REGISTAR_VENTA: String = "registrar_venta" {readOnly}</text><path fill="none" stroke="#383838" d="M 1493 624.5 L 1799.0592041015625 624.5" stroke-miterlimit="10"/></g></g><g transform="translate(-886,-542) scale(1,1)"><g><path fill="none" stroke="none"/><text fill="#383838" stroke="none" font-family="Source Sans Pro" font-size="13px" font-style="normal" font-weight="normal" text-decoration="none" x="1493" y="639.5">+RESULTADO_ERROR: String = "Error" {readOnly}</text><path fill="none" stroke="#383838" d="M 1493 639.5 L 1757.5242309570312 639.5" stroke-miterlimit="10"/></g></g><g transform="translate(-886,-542) scale(1,1)"><g><path fill="none" stroke="none"/><text fill="#383838" stroke="none" font-family="Source Sans Pro" font-size="13px" font-style="normal" font-weight="normal" text-decoration="none" x="1493" y="654.5">+RESULTADO_OK: String = "Ok" {readOnly}</text><path fill="none" stroke="#383838" d="M 1493 654.5 L 1723.3081817626953 654.5" stroke-miterlimit="10"/></g></g><g transform="translate(-886,-542) scale(1,1)"><g><path fill="none" stroke="none"/><text fill="#383838" stroke="none" font-family="Source Sans Pro" font-size="13px" font-style="normal" font-weight="normal" text-decoration="none" x="1493" y="669.5">-out: PrintWriter</text></g></g><g transform="translate(-886,-542) scale(1,1)"><g><path fill="none" stroke="none"/><text fill="#383838" stroke="none" font-family="Source Sans Pro" font-size="13px" font-style="normal" font-weight="normal" text-decoration="none" x="1493" y="684.5">-in: BufferedReader</text></g></g><g transform="translate(-886,-542) scale(1,1)"><g><path fill="none" stroke="none"/><text fill="#383838" stroke="none" font-family="Source Sans Pro" font-size="13px" font-style="normal" font-weight="normal" text-decoration="none" x="1493" y="707.5">«constructor»+ManejadorPuntoVenta(in2: BufferedReader, out2: PrintWriter, nAlmacen: Almacen)</text></g></g><g transform="translate(-886,-542) scale(1,1)"><g><path fill="none" stroke="none"/><text fill="#383838" stroke="none" font-family="Source Sans Pro" font-size="13px" font-style="normal" font-weight="normal" text-decoration="none" x="1493" y="722.5">+run(): void</text></g></g><g transform="translate(-886,-542) scale(1,1)"><g><path fill="none" stroke="none"/><text fill="#383838" stroke="none" font-family="Source Sans Pro" font-size="13px" font-style="normal" font-weight="normal" text-decoration="none" x="1493" y="737.5">-recibirComandosPuntoDeVenta(): void</text></g></g><g transform="translate(-886,-542) scale(1,1)"><g><path fill="none" stroke="none"/><text fill="#383838" stroke="none" font-family="Source Sans Pro" font-size="13px" font-style="normal" font-weight="normal" text-decoration="none" x="1493" y="752.5">-registrarVenta(): void</text></g></g><g transform="translate(-886,-542) scale(1,1)"><path fill="none" stroke="#000000" d="M 1885 757 L 1885 856 L 1408 856" stroke-miterlimit="10"/></g><g transform="translate(-886,-542) scale(1,1)"><path fill="none" stroke="#000000" d="M 1418.162674857624 851.790482243984 L 1408 856 L 1418.162674857624 860.209517756016" stroke-miterlimit="10"/></g><g transform="translate(-886,-542) scale(1,1)"><g><path fill="none" stroke="none"/><text fill="#000000" stroke="none" font-family="Source Sans Pro" font-size="13px" font-style="normal" font-weight="normal" text-decoration="none" x="1407.9026336669922" y="876.5">-almacen</text></g></g><g transform="translate(-886,-542) scale(1,1)"><g><path fill="none" stroke="none"/><text fill="#000000" stroke="none" font-family="Source Sans Pro" font-size="13px" font-style="normal" font-weight="normal" text-decoration="none" x="1425.8844909667969" y="849.5">1</text></g></g><g transform="translate(-886,-542) scale(1,1)"><rect fill="#C0C0C0" stroke="none" x="903" y="1111" width="512" height="205" opacity="0.2"/></g><g transform="translate(-886,-542) scale(1,1)"><rect fill="#d6adff" stroke="none" x="896" y="1104" width="512" height="205"/></g><g transform="translate(-886,-542) scale(1,1)"><path fill="none" stroke="#383838" d="M 896 1104 L 1408 1104 L 1408 1309 L 896 1309 L 896 1104 Z Z" stroke-miterlimit="10"/></g><g transform="translate(-886,-542) scale(1,1)"><path fill="none" stroke="#383838" d="M 896 1144 L 1408 1144" stroke-miterlimit="10"/></g><g transform="translate(-886,-542) scale(1,1)"><path fill="none" stroke="#383838" d="M 896 1212 L 1408 1212" stroke-miterlimit="10"/></g><g transform="translate(-886,-542) scale(1,1)"><g><path fill="none" stroke="none"/><text fill="#383838" stroke="none" font-family="Source Sans Pro" font-size="13px" font-style="normal" font-weight="bold" text-decoration="none" x="1126.7799835205078" y="1123.5">Producto</text></g></g><g transform="translate(-886,-542) scale(1,1)"><g><path fill="none" stroke="none"/><text fill="#383838" stroke="none" font-family="Source Sans Pro" font-size="13px" font-style="normal" font-weight="normal" text-decoration="none" x="1114.1374588012695" y="1138.5">(from mundo)</text></g></g><g transform="translate(-886,-542) scale(1,1)"><g><path fill="none" stroke="none"/><text fill="#383838" stroke="none" font-family="Source Sans Pro" font-size="13px" font-style="normal" font-weight="normal" text-decoration="none" x="901" y="1161.5">-codigo: String</text></g></g><g transform="translate(-886,-542) scale(1,1)"><g><path fill="none" stroke="none"/><text fill="#383838" stroke="none" font-family="Source Sans Pro" font-size="13px" font-style="normal" font-weight="normal" text-decoration="none" x="901" y="1176.5">-nombre: String</text></g></g><g transform="translate(-886,-542) scale(1,1)"><g><path fill="none" stroke="none"/><text fill="#383838" stroke="none" font-family="Source Sans Pro" font-size="13px" font-style="normal" font-weight="normal" text-decoration="none" x="901" y="1191.5">-precio: int</text></g></g><g transform="translate(-886,-542) scale(1,1)"><g><path fill="none" stroke="none"/><text fill="#383838" stroke="none" font-family="Source Sans Pro" font-size="13px" font-style="normal" font-weight="normal" text-decoration="none" x="901" y="1206.5">-unidades: int</text></g></g><g transform="translate(-886,-542) scale(1,1)"><g><path fill="none" stroke="none"/><text fill="#383838" stroke="none" font-family="Source Sans Pro" font-size="13px" font-style="normal" font-weight="normal" text-decoration="none" x="901" y="1229.5">«constructor»+Producto(codigoP: String, nombreP: String, precioP: int, unidadesP: int)</text></g></g><g transform="translate(-886,-542) scale(1,1)"><g><path fill="none" stroke="none"/><text fill="#383838" stroke="none" font-family="Source Sans Pro" font-size="13px" font-style="normal" font-weight="normal" text-decoration="none" x="901" y="1244.5">+darCodigo(): String</text></g></g><g transform="translate(-886,-542) scale(1,1)"><g><path fill="none" stroke="none"/><text fill="#383838" stroke="none" font-family="Source Sans Pro" font-size="13px" font-style="normal" font-weight="normal" text-decoration="none" x="901" y="1259.5">+darNombre(): String</text></g></g><g transform="translate(-886,-542) scale(1,1)"><g><path fill="none" stroke="none"/><text fill="#383838" stroke="none" font-family="Source Sans Pro" font-size="13px" font-style="normal" font-weight="normal" text-decoration="none" x="901" y="1274.5">+darPrecio(): int</text></g></g><g transform="translate(-886,-542) scale(1,1)"><g><path fill="none" stroke="none"/><text fill="#383838" stroke="none" font-family="Source Sans Pro" font-size="13px" font-style="normal" font-weight="normal" text-decoration="none" x="901" y="1289.5">+darUnidades(): int</text></g></g><g transform="translate(-886,-542) scale(1,1)"><g><path fill="none" stroke="none"/><text fill="#383838" stroke="none" font-family="Source Sans Pro" font-size="13px" font-style="normal" font-weight="normal" text-decoration="none" x="901" y="1304.5">+toString(): String</text></g></g><g transform="translate(-886,-542) scale(1,1)"><rect fill="#C0C0C0" stroke="none" x="903" y="567" width="512" height="145" opacity="0.2"/></g><g transform="translate(-886,-542) scale(1,1)"><rect fill="#d6adff" stroke="none" x="896" y="560" width="512" height="145"/></g><g transform="translate(-886,-542) scale(1,1)"><path fill="none" stroke="#383838" d="M 896 560 L 1408 560 L 1408 705 L 896 705 L 896 560 Z Z" stroke-miterlimit="10"/></g><g transform="translate(-886,-542) scale(1,1)"><path fill="none" stroke="#383838" d="M 896 600 L 1408 600" stroke-miterlimit="10"/></g><g transform="translate(-886,-542) scale(1,1)"><path fill="none" stroke="#383838" d="M 896 638 L 1408 638" stroke-miterlimit="10"/></g><g transform="translate(-886,-542) scale(1,1)"><g><path fill="none" stroke="none"/><text fill="#383838" stroke="none" font-family="Source Sans Pro" font-size="13px" font-style="normal" font-weight="bold" text-decoration="none" x="1105.5119705200195" y="579.5">ServidorAlmacen</text></g></g><g transform="translate(-886,-542) scale(1,1)"><g><path fill="none" stroke="none"/><text fill="#383838" stroke="none" font-family="Source Sans Pro" font-size="13px" font-style="normal" font-weight="normal" text-decoration="none" x="1114.1374588012695" y="594.5">(from mundo)</text></g></g><g transform="translate(-886,-542) scale(1,1)"><g><path fill="none" stroke="none"/><text fill="#383838" stroke="none" font-family="Source Sans Pro" font-size="13px" font-style="normal" font-weight="normal" text-decoration="none" x="901" y="617.5">-socket: ServerSocket</text></g></g><g transform="translate(-886,-542) scale(1,1)"><g><path fill="none" stroke="none"/><text fill="#383838" stroke="none" font-family="Source Sans Pro" font-size="13px" font-style="normal" font-weight="normal" text-decoration="none" x="901" y="632.5">-configuracion: Properties</text></g></g><g transform="translate(-886,-542) scale(1,1)"><g><path fill="none" stroke="none"/><text fill="#383838" stroke="none" font-family="Source Sans Pro" font-size="13px" font-style="normal" font-weight="normal" text-decoration="none" x="901" y="655.5">«constructor»+ServidorAlmacen(archivo: String)</text></g></g><g transform="translate(-886,-542) scale(1,1)"><g><path fill="none" stroke="none"/><text fill="#383838" stroke="none" font-family="Source Sans Pro" font-size="13px" font-style="normal" font-weight="normal" text-decoration="none" x="901" y="670.5">-cargarConfiguracion(archivo: String): void</text></g></g><g transform="translate(-886,-542) scale(1,1)"><g><path fill="none" stroke="none"/><text fill="#383838" stroke="none" font-family="Source Sans Pro" font-size="13px" font-style="normal" font-weight="normal" text-decoration="none" x="901" y="685.5">+darAlmacen(): Almacen</text></g></g><g transform="translate(-886,-542) scale(1,1)"><g><path fill="none" stroke="none"/><text fill="#383838" stroke="none" font-family="Source Sans Pro" font-size="13px" font-style="normal" font-weight="normal" text-decoration="none" x="901" y="700.5">+recibirConexiones(): void</text></g></g><g transform="translate(-886,-542) scale(1,1)"><path fill="none" stroke="#000000" d="M 1155 705 L 1155 792" stroke-miterlimit="10"/></g><g transform="translate(-886,-542) scale(1,1)"><path fill="none" stroke="#000000" d="M 1150.7904822439841 781.8373251423759 L 1155 792 L 1159.2095177560159 781.8373251423759" stroke-miterlimit="10"/></g><g transform="translate(-886,-542) scale(1,1)"><g><path fill="none" stroke="none"/><text fill="#000000" stroke="none" font-family="Source Sans Pro" font-size="13px" font-style="normal" font-weight="normal" text-decoration="none" x="1168.9026336669922" y="772.5">-almacen</text></g></g><g transform="translate(-886,-542) scale(1,1)"><path fill="none" stroke="#000000" d="M 1160 1027 L 1160 1104" stroke-miterlimit="10"/></g><g transform="translate(-886,-542) scale(1,1)"><path fill="none" stroke="#000000" d="M 1155.7904822439841 1093.837325142376 L 1160 1104 L 1164.2095177560159 1093.837325142376" stroke-miterlimit="10"/></g><g transform="translate(-886,-542) scale(1,1)"><path fill="none" stroke="#000000" d="M 1408 645 L 1488 645" stroke-miterlimit="10" stroke-dasharray="3"/></g><g transform="translate(-886,-542) scale(1,1)"><path fill="none" stroke="#000000" d="M 1477.837325142376 649.209517756016 L 1488 645 L 1477.837325142376 640.790482243984" stroke-miterlimit="10"/></g><g transform="translate(-886,-542) scale(1,1)"><path fill="none" stroke="#000000" d="M 1408 933 L 1640 933" stroke-miterlimit="10" stroke-dasharray="3"/></g><g transform="translate(-886,-542) scale(1,1)"><path fill="none" stroke="#000000" d="M 1629.837325142376 937.209517756016 L 1640 933 L 1629.837325142376 928.790482243984" stroke-miterlimit="10"/></g><g transform="translate(-886,-542) scale(1,1)"><g><path fill="none" stroke="none"/><text fill="#000000" stroke="none" font-family="Source Sans Pro" font-size="13px" font-style="normal" font-weight="normal" text-decoration="none" x="1502.3989181518555" y="924.5">+throws</text></g></g></g></svg>
