<svg version="1.1" xmlns="http://www.w3.org/2000/svg" xmlns:xlink="http://www.w3.org/1999/xlink" width="1068" height="1161"><defs/><g><g transform="translate(-214,-526) scale(1,1)"><rect fill="#C0C0C0" stroke="none" x="775" y="1135" width="504" height="130" opacity="0.2"/></g><g transform="translate(-214,-526) scale(1,1)"><rect fill="#a3e0ff" stroke="none" x="768" y="1128" width="504" height="130"/></g><g transform="translate(-214,-526) scale(1,1)"><path fill="none" stroke="#545454" d="M 768 1128 L 1272 1128 L 1272 1258 L 768 1258 L 768 1128 Z Z" stroke-miterlimit="10"/></g><g transform="translate(-214,-526) scale(1,1)"><path fill="none" stroke="#545454" d="M 768 1168 L 1272 1168" stroke-miterlimit="10"/></g><g transform="translate(-214,-526) scale(1,1)"><path fill="none" stroke="#545454" d="M 768 1221 L 1272 1221" stroke-miterlimit="10"/></g><g transform="translate(-214,-526) scale(1,1)"><g><path fill="none" stroke="none"/><text fill="#383838" stroke="none" font-family="Source Sans Pro" font-size="13px" font-style="normal" font-weight="bold" text-decoration="none" x="951.0869522094727" y="1147.5">BarraMenuPuntoDeVenta</text></g></g><g transform="translate(-214,-526) scale(1,1)"><g><path fill="none" stroke="none"/><text fill="#383838" stroke="none" font-family="Source Sans Pro" font-size="13px" font-style="normal" font-weight="normal" text-decoration="none" x="981.1234664916992" y="1162.5">(from interfaz)</text></g></g><g transform="translate(-214,-526) scale(1,1)"><g><path fill="none" stroke="none"/><text fill="#383838" stroke="none" font-family="Source Sans Pro" font-size="13px" font-style="normal" font-weight="normal" text-decoration="none" x="773" y="1185.5">-SALIR: String = "salir" {readOnly}</text><path fill="none" stroke="#383838" d="M 773 1185.5 L 952.6991424560547 1185.5" stroke-miterlimit="10"/></g></g><g transform="translate(-214,-526) scale(1,1)"><g><path fill="none" stroke="none"/><text fill="#383838" stroke="none" font-family="Source Sans Pro" font-size="13px" font-style="normal" font-weight="normal" text-decoration="none" x="773" y="1200.5">-menuPuntoDeVenta: JMenu</text></g></g><g transform="translate(-214,-526) scale(1,1)"><g><path fill="none" stroke="none"/><text fill="#383838" stroke="none" font-family="Source Sans Pro" font-size="13px" font-style="normal" font-weight="normal" text-decoration="none" x="773" y="1215.5">-itemSalir: JMenuItem</text></g></g><g transform="translate(-214,-526) scale(1,1)"><g><path fill="none" stroke="none"/><text fill="#383838" stroke="none" font-family="Source Sans Pro" font-size="13px" font-style="normal" font-weight="normal" text-decoration="none" x="773" y="1238.5">«constructor»+BarraMenuPuntoDeVenta(ipv: InterfazPuntoDeVenta)</text></g></g><g transform="translate(-214,-526) scale(1,1)"><g><path fill="none" stroke="none"/><text fill="#383838" stroke="none" font-family="Source Sans Pro" font-size="13px" font-style="normal" font-weight="normal" text-decoration="none" x="773" y="1253.5">+actionPerformed(evento: ActionEvent): void</text></g></g><g transform="translate(-214,-526) scale(1,1)"><rect fill="#C0C0C0" stroke="none" x="231" y="959" width="406.79998779296875" height="256" opacity="0.2"/></g><g transform="translate(-214,-526) scale(1,1)"><rect fill="#a3e0ff" stroke="none" x="224" y="952" width="406.79998779296875" height="256"/></g><g transform="translate(-214,-526) scale(1,1)"><path fill="none" stroke="#545454" d="M 224 952 L 630.7999877929688 952 L 630.7999877929688 1208 L 224 1208 L 224 952 Z Z" stroke-miterlimit="10"/></g><g transform="translate(-214,-526) scale(1,1)"><path fill="none" stroke="#545454" d="M 224 992 L 630.7999877929688 992" stroke-miterlimit="10"/></g><g transform="translate(-214,-526) scale(1,1)"><path fill="none" stroke="#545454" d="M 224 1015 L 630.7999877929688 1015" stroke-miterlimit="10"/></g><g transform="translate(-214,-526) scale(1,1)"><g><path fill="none" stroke="none"/><text fill="#383838" stroke="none" font-family="Source Sans Pro" font-size="13px" font-style="normal" font-weight="bold" text-decoration="none" x="367.6194534301758" y="971.5">InterfazPuntoDeVenta</text></g></g><g transform="translate(-214,-526) scale(1,1)"><g><path fill="none" stroke="none"/><text fill="#383838" stroke="none" font-family="Source Sans Pro" font-size="13px" font-style="normal" font-weight="normal" text-decoration="none" x="388.5234603881836" y="986.5">(from interfaz)</text></g></g><g transform="translate(-214,-526) scale(1,1)"><g><path fill="none" stroke="none"/><text fill="#383838" stroke="none" font-family="Source Sans Pro" font-size="13px" font-style="normal" font-weight="normal" text-decoration="none" x="229" y="1009.5">-puntoDeVenta: PuntoDeVenta</text></g></g><g transform="translate(-214,-526) scale(1,1)"><g><path fill="none" stroke="none"/><text fill="#383838" stroke="none" font-family="Source Sans Pro" font-size="13px" font-style="normal" font-weight="normal" text-decoration="none" x="229" y="1032.5">«constructor»+InterfazPuntoDeVenta(archivo: String)</text></g></g><g transform="translate(-214,-526) scale(1,1)"><g><path fill="none" stroke="none"/><text fill="#383838" stroke="none" font-family="Source Sans Pro" font-size="13px" font-style="normal" font-weight="normal" text-decoration="none" x="229" y="1047.5">-construirForma(): void</text></g></g><g transform="translate(-214,-526) scale(1,1)"><g><path fill="none" stroke="none"/><text fill="#383838" stroke="none" font-family="Source Sans Pro" font-size="13px" font-style="normal" font-weight="normal" text-decoration="none" x="229" y="1062.5">-construirMenu(): void</text></g></g><g transform="translate(-214,-526) scale(1,1)"><g><path fill="none" stroke="none"/><text fill="#383838" stroke="none" font-family="Source Sans Pro" font-size="13px" font-style="normal" font-weight="normal" text-decoration="none" x="229" y="1077.5">-conectar(): void</text></g></g><g transform="translate(-214,-526) scale(1,1)"><g><path fill="none" stroke="none"/><text fill="#383838" stroke="none" font-family="Source Sans Pro" font-size="13px" font-style="normal" font-weight="normal" text-decoration="none" x="229" y="1092.5">+salir(): void</text></g></g><g transform="translate(-214,-526) scale(1,1)"><g><path fill="none" stroke="none"/><text fill="#383838" stroke="none" font-family="Source Sans Pro" font-size="13px" font-style="normal" font-weight="normal" text-decoration="none" x="229" y="1107.5">+dispose(): void</text></g></g><g transform="translate(-214,-526) scale(1,1)"><g><path fill="none" stroke="none"/><text fill="#383838" stroke="none" font-family="Source Sans Pro" font-size="13px" font-style="normal" font-weight="normal" text-decoration="none" x="229" y="1122.5">+registrarProducto(codigo: String): void</text></g></g><g transform="translate(-214,-526) scale(1,1)"><g><path fill="none" stroke="none"/><text fill="#383838" stroke="none" font-family="Source Sans Pro" font-size="13px" font-style="normal" font-weight="normal" text-decoration="none" x="229" y="1137.5">+limpiar(): void</text></g></g><g transform="translate(-214,-526) scale(1,1)"><g><path fill="none" stroke="none"/><text fill="#383838" stroke="none" font-family="Source Sans Pro" font-size="13px" font-style="normal" font-weight="normal" text-decoration="none" x="229" y="1152.5">+actualizarTotal(): void</text></g></g><g transform="translate(-214,-526) scale(1,1)"><g><path fill="none" stroke="none"/><text fill="#383838" stroke="none" font-family="Source Sans Pro" font-size="13px" font-style="normal" font-weight="normal" text-decoration="none" x="229" y="1167.5">+reqFuncOpcion1(): void</text></g></g><g transform="translate(-214,-526) scale(1,1)"><g><path fill="none" stroke="none"/><text fill="#383838" stroke="none" font-family="Source Sans Pro" font-size="13px" font-style="normal" font-weight="normal" text-decoration="none" x="229" y="1182.5">+reqFuncOpcion2(): void</text></g></g><g transform="translate(-214,-526) scale(1,1)"><g><path fill="none" stroke="none"/><text fill="#383838" stroke="none" font-family="Source Sans Pro" font-size="13px" font-style="normal" font-weight="normal" text-decoration="none" x="229" y="1197.5">+main(args: String[*]): void</text><path fill="none" stroke="#383838" d="M 229 1197.5 L 375.3411102294922 1197.5" stroke-miterlimit="10"/></g></g><g transform="translate(-214,-526) scale(1,1)"><path fill="none" stroke="#545454" d="M 1008 1258 L 1008 1312 L 520 1312 L 520 1208" stroke-miterlimit="10"/></g><g transform="translate(-214,-526) scale(1,1)"><path fill="none" stroke="#545454" d="M 524.209517756016 1218.162674857624 L 520 1208 L 515.790482243984 1218.162674857624" stroke-miterlimit="10"/></g><g transform="translate(-214,-526) scale(1,1)"><g><path fill="none" stroke="none"/><text fill="#000000" stroke="none" font-family="Source Sans Pro" font-size="13px" font-style="normal" font-weight="normal" text-decoration="none" x="989.7074966430664" y="1289.5">~barraMenu</text></g></g><g transform="translate(-214,-526) scale(1,1)"><g><path fill="none" stroke="none"/><text fill="#000000" stroke="none" font-family="Source Sans Pro" font-size="13px" font-style="normal" font-weight="normal" text-decoration="none" x="456.50499725341797" y="1239.5">-ventanaPrincipal</text></g></g><g transform="translate(-214,-526) scale(1,1)"><rect fill="#C0C0C0" stroke="none" x="775" y="543" width="496" height="115" opacity="0.2"/></g><g transform="translate(-214,-526) scale(1,1)"><rect fill="#a3e0ff" stroke="none" x="768" y="536" width="496" height="115"/></g><g transform="translate(-214,-526) scale(1,1)"><path fill="none" stroke="#545454" d="M 768 536 L 1264 536 L 1264 651 L 768 651 L 768 536 Z Z" stroke-miterlimit="10"/></g><g transform="translate(-214,-526) scale(1,1)"><path fill="none" stroke="#545454" d="M 768 576 L 1264 576" stroke-miterlimit="10"/></g><g transform="translate(-214,-526) scale(1,1)"><path fill="none" stroke="#545454" d="M 768 614 L 1264 614" stroke-miterlimit="10"/></g><g transform="translate(-214,-526) scale(1,1)"><g><path fill="none" stroke="none"/><text fill="#383838" stroke="none" font-family="Source Sans Pro" font-size="13px" font-style="normal" font-weight="bold" text-decoration="none" x="939.2219390869141" y="555.5">PanelBotonesPuntoDeVenta</text></g></g><g transform="translate(-214,-526) scale(1,1)"><g><path fill="none" stroke="none"/><text fill="#383838" stroke="none" font-family="Source Sans Pro" font-size="13px" font-style="normal" font-weight="normal" text-decoration="none" x="977.1234664916992" y="570.5">(from interfaz)</text></g></g><g transform="translate(-214,-526) scale(1,1)"><g><path fill="none" stroke="none"/><text fill="#383838" stroke="none" font-family="Source Sans Pro" font-size="13px" font-style="normal" font-weight="normal" text-decoration="none" x="773" y="593.5">-NUEVA_VENTA: String = "nuevaVenta" {readOnly}</text><path fill="none" stroke="#383838" d="M 773 593.5 L 1041.5671997070312 593.5" stroke-miterlimit="10"/></g></g><g transform="translate(-214,-526) scale(1,1)"><g><path fill="none" stroke="none"/><text fill="#383838" stroke="none" font-family="Source Sans Pro" font-size="13px" font-style="normal" font-weight="normal" text-decoration="none" x="773" y="608.5">-botonNuevaVenta: JButton</text></g></g><g transform="translate(-214,-526) scale(1,1)"><g><path fill="none" stroke="none"/><text fill="#383838" stroke="none" font-family="Source Sans Pro" font-size="13px" font-style="normal" font-weight="normal" text-decoration="none" x="773" y="631.5">«constructor»+PanelBotonesPuntoDeVenta(ipv: InterfazPuntoDeVenta)</text></g></g><g transform="translate(-214,-526) scale(1,1)"><g><path fill="none" stroke="none"/><text fill="#383838" stroke="none" font-family="Source Sans Pro" font-size="13px" font-style="normal" font-weight="normal" text-decoration="none" x="773" y="646.5">+actionPerformed(evento: ActionEvent): void</text></g></g><g transform="translate(-214,-526) scale(1,1)"><path fill="none" stroke="#545454" d="M 768 592 L 312 592 L 312 952" stroke-miterlimit="10"/></g><g transform="translate(-214,-526) scale(1,1)"><path fill="none" stroke="#545454" d="M 307.790482243984 941.8373251423759 L 312 952 L 316.209517756016 941.8373251423759" stroke-miterlimit="10"/></g><g transform="translate(-214,-526) scale(1,1)"><g><path fill="none" stroke="none"/><text fill="#000000" stroke="none" font-family="Source Sans Pro" font-size="13px" font-style="normal" font-weight="normal" text-decoration="none" x="658.1849822998047" y="612.5">~panelBotones</text></g></g><g transform="translate(-214,-526) scale(1,1)"><g><path fill="none" stroke="none"/><text fill="#000000" stroke="none" font-family="Source Sans Pro" font-size="13px" font-style="normal" font-weight="normal" text-decoration="none" x="278.50499725341797" y="932.5">-ventanaPrincipal</text></g></g><g transform="translate(-214,-526) scale(1,1)"><rect fill="#C0C0C0" stroke="none" x="775" y="935" width="504" height="160" opacity="0.2"/></g><g transform="translate(-214,-526) scale(1,1)"><rect fill="#a3e0ff" stroke="none" x="768" y="928" width="504" height="160"/></g><g transform="translate(-214,-526) scale(1,1)"><path fill="none" stroke="#545454" d="M 768 928 L 1272 928 L 1272 1088 L 768 1088 L 768 928 Z Z" stroke-miterlimit="10"/></g><g transform="translate(-214,-526) scale(1,1)"><path fill="none" stroke="#545454" d="M 768 968 L 1272 968" stroke-miterlimit="10"/></g><g transform="translate(-214,-526) scale(1,1)"><path fill="none" stroke="#545454" d="M 768 1036 L 1272 1036" stroke-miterlimit="10"/></g><g transform="translate(-214,-526) scale(1,1)"><g><path fill="none" stroke="none"/><text fill="#383838" stroke="none" font-family="Source Sans Pro" font-size="13px" font-style="normal" font-weight="bold" text-decoration="none" x="939.0879364013672" y="947.5">PanelExtensionPuntoDeVenta</text></g></g><g transform="translate(-214,-526) scale(1,1)"><g><path fill="none" stroke="none"/><text fill="#383838" stroke="none" font-family="Source Sans Pro" font-size="13px" font-style="normal" font-weight="normal" text-decoration="none" x="981.1234664916992" y="962.5">(from interfaz)</text></g></g><g transform="translate(-214,-526) scale(1,1)"><g><path fill="none" stroke="none"/><text fill="#383838" stroke="none" font-family="Source Sans Pro" font-size="13px" font-style="normal" font-weight="normal" text-decoration="none" x="773" y="985.5">-OPCION_1: String = "opcion 1" {readOnly}</text></g></g><g transform="translate(-214,-526) scale(1,1)"><g><path fill="none" stroke="none"/><text fill="#383838" stroke="none" font-family="Source Sans Pro" font-size="13px" font-style="normal" font-weight="normal" text-decoration="none" x="773" y="1000.5">-OPCION_2: String = "opcion 2" {readOnly}</text></g></g><g transform="translate(-214,-526) scale(1,1)"><g><path fill="none" stroke="none"/><text fill="#383838" stroke="none" font-family="Source Sans Pro" font-size="13px" font-style="normal" font-weight="normal" text-decoration="none" x="773" y="1015.5">-botonOpcion1: JButton</text></g></g><g transform="translate(-214,-526) scale(1,1)"><g><path fill="none" stroke="none"/><text fill="#383838" stroke="none" font-family="Source Sans Pro" font-size="13px" font-style="normal" font-weight="normal" text-decoration="none" x="773" y="1030.5">-botonOpcion2: JButton</text></g></g><g transform="translate(-214,-526) scale(1,1)"><g><path fill="none" stroke="none"/><text fill="#383838" stroke="none" font-family="Source Sans Pro" font-size="13px" font-style="normal" font-weight="normal" text-decoration="none" x="773" y="1053.5">«constructor»+PanelExtensionPuntoDeVenta(ip: InterfazPuntoDeVenta)</text></g></g><g transform="translate(-214,-526) scale(1,1)"><g><path fill="none" stroke="none"/><text fill="#383838" stroke="none" font-family="Source Sans Pro" font-size="13px" font-style="normal" font-weight="normal" text-decoration="none" x="773" y="1068.5">-inicializar(): void</text></g></g><g transform="translate(-214,-526) scale(1,1)"><g><path fill="none" stroke="none"/><text fill="#383838" stroke="none" font-family="Source Sans Pro" font-size="13px" font-style="normal" font-weight="normal" text-decoration="none" x="773" y="1083.5">+actionPerformed(event: ActionEvent): void</text></g></g><g transform="translate(-214,-526) scale(1,1)"><path fill="none" stroke="#545454" d="M 631 1067 L 768 1067" stroke-miterlimit="10"/></g><g transform="translate(-214,-526) scale(1,1)"><path fill="none" stroke="#545454" d="M 757.8373251423759 1071.2095177560159 L 768 1067 L 757.8373251423758 1062.7904822439841" stroke-miterlimit="10"/></g><g transform="translate(-214,-526) scale(1,1)"><g><path fill="none" stroke="none"/><text fill="#000000" stroke="none" font-family="Source Sans Pro" font-size="13px" font-style="normal" font-weight="normal" text-decoration="none" x="666.0599822998047" y="1051.5">-panelExtension</text></g></g><g transform="translate(-214,-526) scale(1,1)"><path fill="none" stroke="#545454" d="M 768 1067 L 631 1067" stroke-miterlimit="10"/></g><g transform="translate(-214,-526) scale(1,1)"><path fill="none" stroke="#545454" d="M 641.1626748576241 1062.7904822439841 L 631 1067 L 641.1626748576241 1071.2095177560159" stroke-miterlimit="10"/></g><g transform="translate(-214,-526) scale(1,1)"><g><path fill="none" stroke="none"/><text fill="#000000" stroke="none" font-family="Source Sans Pro" font-size="13px" font-style="normal" font-weight="normal" text-decoration="none" x="645.504997253418" y="1086.5">-ventanaPrincipal</text></g></g><g transform="translate(-214,-526) scale(1,1)"><rect fill="#C0C0C0" stroke="none" x="775" y="695" width="500.4000244140625" height="205" opacity="0.2"/></g><g transform="translate(-214,-526) scale(1,1)"><rect fill="#a3e0ff" stroke="none" x="768" y="688" width="500.4000244140625" height="205"/></g><g transform="translate(-214,-526) scale(1,1)"><path fill="none" stroke="#545454" d="M 768 688 L 1268.4000244140625 688 L 1268.4000244140625 893 L 768 893 L 768 688 Z Z" stroke-miterlimit="10"/></g><g transform="translate(-214,-526) scale(1,1)"><path fill="none" stroke="#545454" d="M 768 728 L 1268.4000244140625 728" stroke-miterlimit="10"/></g><g transform="translate(-214,-526) scale(1,1)"><path fill="none" stroke="#545454" d="M 768 826 L 1268.4000244140625 826" stroke-miterlimit="10"/></g><g transform="translate(-214,-526) scale(1,1)"><g><path fill="none" stroke="none"/><text fill="#383838" stroke="none" font-family="Source Sans Pro" font-size="13px" font-style="normal" font-weight="bold" text-decoration="none" x="953.4079742431641" y="707.5">PanelRegistrarProducto</text></g></g><g transform="translate(-214,-526) scale(1,1)"><g><path fill="none" stroke="none"/><text fill="#383838" stroke="none" font-family="Source Sans Pro" font-size="13px" font-style="normal" font-weight="normal" text-decoration="none" x="979.3234786987305" y="722.5">(from interfaz)</text></g></g><g transform="translate(-214,-526) scale(1,1)"><g><path fill="none" stroke="none"/><text fill="#383838" stroke="none" font-family="Source Sans Pro" font-size="13px" font-style="normal" font-weight="normal" text-decoration="none" x="773" y="745.5">-REGISTRAR: String = "registrar" {readOnly}</text><path fill="none" stroke="#383838" d="M 773 745.5 L 1005.7131652832031 745.5" stroke-miterlimit="10"/></g></g><g transform="translate(-214,-526) scale(1,1)"><g><path fill="none" stroke="none"/><text fill="#383838" stroke="none" font-family="Source Sans Pro" font-size="13px" font-style="normal" font-weight="normal" text-decoration="none" x="773" y="760.5">-txtCodigo: JTextField</text></g></g><g transform="translate(-214,-526) scale(1,1)"><g><path fill="none" stroke="none"/><text fill="#383838" stroke="none" font-family="Source Sans Pro" font-size="13px" font-style="normal" font-weight="normal" text-decoration="none" x="773" y="775.5">-botonRegistrar: JButton</text></g></g><g transform="translate(-214,-526) scale(1,1)"><g><path fill="none" stroke="none"/><text fill="#383838" stroke="none" font-family="Source Sans Pro" font-size="13px" font-style="normal" font-weight="normal" text-decoration="none" x="773" y="790.5">-etiquetaCodigo: JLabel</text></g></g><g transform="translate(-214,-526) scale(1,1)"><g><path fill="none" stroke="none"/><text fill="#383838" stroke="none" font-family="Source Sans Pro" font-size="13px" font-style="normal" font-weight="normal" text-decoration="none" x="773" y="805.5">-etiquetaTotal: JLabel</text></g></g><g transform="translate(-214,-526) scale(1,1)"><g><path fill="none" stroke="none"/><text fill="#383838" stroke="none" font-family="Source Sans Pro" font-size="13px" font-style="normal" font-weight="normal" text-decoration="none" x="773" y="820.5">-txtTotal: JTextField</text></g></g><g transform="translate(-214,-526) scale(1,1)"><g><path fill="none" stroke="none"/><text fill="#383838" stroke="none" font-family="Source Sans Pro" font-size="13px" font-style="normal" font-weight="normal" text-decoration="none" x="773" y="843.5">«constructor»+PanelRegistrarProducto(ipv: InterfazPuntoDeVenta)</text></g></g><g transform="translate(-214,-526) scale(1,1)"><g><path fill="none" stroke="none"/><text fill="#383838" stroke="none" font-family="Source Sans Pro" font-size="13px" font-style="normal" font-weight="normal" text-decoration="none" x="773" y="858.5">+actualizarTotal(total: int): void</text></g></g><g transform="translate(-214,-526) scale(1,1)"><g><path fill="none" stroke="none"/><text fill="#383838" stroke="none" font-family="Source Sans Pro" font-size="13px" font-style="normal" font-weight="normal" text-decoration="none" x="773" y="873.5">+limpiar(): void</text></g></g><g transform="translate(-214,-526) scale(1,1)"><g><path fill="none" stroke="none"/><text fill="#383838" stroke="none" font-family="Source Sans Pro" font-size="13px" font-style="normal" font-weight="normal" text-decoration="none" x="773" y="888.5">+actionPerformed(evento: ActionEvent): void</text></g></g><g transform="translate(-214,-526) scale(1,1)"><path fill="none" stroke="#545454" d="M 768 776 L 504 776 L 504 952" stroke-miterlimit="10"/></g><g transform="translate(-214,-526) scale(1,1)"><path fill="none" stroke="#545454" d="M 499.790482243984 941.8373251423759 L 504 952 L 508.209517756016 941.8373251423759" stroke-miterlimit="10"/></g><g transform="translate(-214,-526) scale(1,1)"><g><path fill="none" stroke="none"/><text fill="#000000" stroke="none" font-family="Source Sans Pro" font-size="13px" font-style="normal" font-weight="normal" text-decoration="none" x="658.1455001831055" y="796.5">~panelRegistrar</text></g></g><g transform="translate(-214,-526) scale(1,1)"><g><path fill="none" stroke="none"/><text fill="#000000" stroke="none" font-family="Source Sans Pro" font-size="13px" font-style="normal" font-weight="normal" text-decoration="none" x="470.50499725341797" y="932.5">-ventanaPrincipal</text></g></g><g transform="translate(-214,-526) scale(1,1)"><rect fill="#C0C0C0" stroke="none" x="231" y="1359" width="400" height="325" opacity="0.2"/></g><g transform="translate(-214,-526) scale(1,1)"><rect fill="#d6adff" stroke="none" x="224" y="1352" width="400" height="325"/></g><g transform="translate(-214,-526) scale(1,1)"><path fill="none" stroke="#000000" d="M 224 1352 L 624 1352 L 624 1677 L 224 1677 L 224 1352 Z Z" stroke-miterlimit="10"/></g><g transform="translate(-214,-526) scale(1,1)"><path fill="none" stroke="#000000" d="M 224 1392 L 624 1392" stroke-miterlimit="10"/></g><g transform="translate(-214,-526) scale(1,1)"><path fill="none" stroke="#000000" d="M 224 1535 L 624 1535" stroke-miterlimit="10"/></g><g transform="translate(-214,-526) scale(1,1)"><g><path fill="none" stroke="none"/><text fill="#383838" stroke="none" font-family="Source Sans Pro" font-size="13px" font-style="normal" font-weight="bold" text-decoration="none" x="384.95447540283203" y="1371.5">PuntoDeVenta</text></g></g><g transform="translate(-214,-526) scale(1,1)"><g><path fill="none" stroke="none"/><text fill="#383838" stroke="none" font-family="Source Sans Pro" font-size="13px" font-style="normal" font-weight="normal" text-decoration="none" x="386.13745880126953" y="1386.5">(from mundo)</text></g></g><g transform="translate(-214,-526) scale(1,1)"><g><path fill="none" stroke="none"/><text fill="#383838" stroke="none" font-family="Source Sans Pro" font-size="13px" font-style="normal" font-weight="normal" text-decoration="none" x="229" y="1409.5">+RESULTADO_OK: String = "Ok" {readOnly}</text><path fill="none" stroke="#383838" d="M 229 1409.5 L 459.3081817626953 1409.5" stroke-miterlimit="10"/></g></g><g transform="translate(-214,-526) scale(1,1)"><g><path fill="none" stroke="none"/><text fill="#383838" stroke="none" font-family="Source Sans Pro" font-size="13px" font-style="normal" font-weight="normal" text-decoration="none" x="229" y="1424.5">+RESULTADO_ERROR: String = "Error" {readOnly}</text><path fill="none" stroke="#383838" d="M 229 1424.5 L 493.52423095703125 1424.5" stroke-miterlimit="10"/></g></g><g transform="translate(-214,-526) scale(1,1)"><g><path fill="none" stroke="none"/><text fill="#383838" stroke="none" font-family="Source Sans Pro" font-size="13px" font-style="normal" font-weight="normal" text-decoration="none" x="229" y="1439.5">+REGISTAR_VENTA: String = "registrar_venta" {readOnly}</text><path fill="none" stroke="#383838" d="M 229 1439.5 L 535.0592041015625 1439.5" stroke-miterlimit="10"/></g></g><g transform="translate(-214,-526) scale(1,1)"><g><path fill="none" stroke="none"/><text fill="#383838" stroke="none" font-family="Source Sans Pro" font-size="13px" font-style="normal" font-weight="normal" text-decoration="none" x="229" y="1454.5">+DESCONECTAR: String = "desconectar" {readOnly}</text><path fill="none" stroke="#383838" d="M 229 1454.5 L 504.56121826171875 1454.5" stroke-miterlimit="10"/></g></g><g transform="translate(-214,-526) scale(1,1)"><g><path fill="none" stroke="none"/><text fill="#383838" stroke="none" font-family="Source Sans Pro" font-size="13px" font-style="normal" font-weight="normal" text-decoration="none" x="229" y="1469.5">-socket: Socket</text></g></g><g transform="translate(-214,-526) scale(1,1)"><g><path fill="none" stroke="none"/><text fill="#383838" stroke="none" font-family="Source Sans Pro" font-size="13px" font-style="normal" font-weight="normal" text-decoration="none" x="229" y="1484.5">-configuracion: Properties</text></g></g><g transform="translate(-214,-526) scale(1,1)"><g><path fill="none" stroke="none"/><text fill="#383838" stroke="none" font-family="Source Sans Pro" font-size="13px" font-style="normal" font-weight="normal" text-decoration="none" x="229" y="1499.5">-total: int</text></g></g><g transform="translate(-214,-526) scale(1,1)"><g><path fill="none" stroke="none"/><text fill="#383838" stroke="none" font-family="Source Sans Pro" font-size="13px" font-style="normal" font-weight="normal" text-decoration="none" x="229" y="1514.5">-out: PrintWriter</text></g></g><g transform="translate(-214,-526) scale(1,1)"><g><path fill="none" stroke="none"/><text fill="#383838" stroke="none" font-family="Source Sans Pro" font-size="13px" font-style="normal" font-weight="normal" text-decoration="none" x="229" y="1529.5">-in: BufferedReader</text></g></g><g transform="translate(-214,-526) scale(1,1)"><g><path fill="none" stroke="none"/><text fill="#383838" stroke="none" font-family="Source Sans Pro" font-size="13px" font-style="normal" font-weight="normal" text-decoration="none" x="229" y="1552.5">«constructor»+PuntoDeVenta(archivo: String)</text></g></g><g transform="translate(-214,-526) scale(1,1)"><g><path fill="none" stroke="none"/><text fill="#383838" stroke="none" font-family="Source Sans Pro" font-size="13px" font-style="normal" font-weight="normal" text-decoration="none" x="229" y="1567.5">-cargarConfiguracion(archivo: String): void</text></g></g><g transform="translate(-214,-526) scale(1,1)"><g><path fill="none" stroke="none"/><text fill="#383838" stroke="none" font-family="Source Sans Pro" font-size="13px" font-style="normal" font-weight="normal" text-decoration="none" x="229" y="1582.5">+conectar(): void</text></g></g><g transform="translate(-214,-526) scale(1,1)"><g><path fill="none" stroke="none"/><text fill="#383838" stroke="none" font-family="Source Sans Pro" font-size="13px" font-style="normal" font-weight="normal" text-decoration="none" x="229" y="1597.5">+desconectar(): void</text></g></g><g transform="translate(-214,-526) scale(1,1)"><g><path fill="none" stroke="none"/><text fill="#383838" stroke="none" font-family="Source Sans Pro" font-size="13px" font-style="normal" font-weight="normal" text-decoration="none" x="229" y="1612.5">+registrarVenta(codigo: String): void</text></g></g><g transform="translate(-214,-526) scale(1,1)"><g><path fill="none" stroke="none"/><text fill="#383838" stroke="none" font-family="Source Sans Pro" font-size="13px" font-style="normal" font-weight="normal" text-decoration="none" x="229" y="1627.5">+darTotal(): int</text></g></g><g transform="translate(-214,-526) scale(1,1)"><g><path fill="none" stroke="none"/><text fill="#383838" stroke="none" font-family="Source Sans Pro" font-size="13px" font-style="normal" font-weight="normal" text-decoration="none" x="229" y="1642.5">+limpiar(): void</text></g></g><g transform="translate(-214,-526) scale(1,1)"><g><path fill="none" stroke="none"/><text fill="#383838" stroke="none" font-family="Source Sans Pro" font-size="13px" font-style="normal" font-weight="normal" text-decoration="none" x="229" y="1657.5">+metodo1(): String</text></g></g><g transform="translate(-214,-526) scale(1,1)"><g><path fill="none" stroke="none"/><text fill="#383838" stroke="none" font-family="Source Sans Pro" font-size="13px" font-style="normal" font-weight="normal" text-decoration="none" x="229" y="1672.5">+metodo2(): String</text></g></g><g transform="translate(-214,-526) scale(1,1)"><path fill="none" stroke="#383838" d="M 344 1208 L 344 1352" stroke-miterlimit="10"/></g><g transform="translate(-214,-526) scale(1,1)"><path fill="none" stroke="#383838" d="M 339.790482243984 1341.837325142376 L 344 1352 L 348.209517756016 1341.837325142376" stroke-miterlimit="10"/></g><g transform="translate(-214,-526) scale(1,1)"><g><path fill="none" stroke="none"/><text fill="#000000" stroke="none" font-family="Arial" font-size="13px" font-style="normal" font-weight="normal" text-decoration="none" x="314.5" y="1332.5">+puntoDeVenta</text></g></g><g transform="translate(-214,-526) scale(1,1)"><rect fill="#C0C0C0" stroke="none" x="863" y="1494" width="328" height="72" opacity="0.2"/></g><g transform="translate(-214,-526) scale(1,1)"><rect fill="#ffaa56" stroke="none" x="856" y="1487" width="328" height="72"/></g><g transform="translate(-214,-526) scale(1,1)"><path fill="none" stroke="#383838" d="M 856 1487 L 1184 1487 L 1184 1559 L 856 1559 L 856 1487 Z Z" stroke-miterlimit="10"/></g><g transform="translate(-214,-526) scale(1,1)"><path fill="none" stroke="#383838" d="M 856 1527 L 1184 1527" stroke-miterlimit="10"/></g><g transform="translate(-214,-526) scale(1,1)"><path fill="none" stroke="#383838" d="M 856 1537 L 1184 1537" stroke-miterlimit="10"/></g><g transform="translate(-214,-526) scale(1,1)"><g><path fill="none" stroke="none"/><text fill="#383838" stroke="none" font-family="Arial" font-size="13px" font-style="normal" font-weight="bold" text-decoration="none" x="964.721435546875" y="1506.5">AlmacenExcepcion</text></g></g><g transform="translate(-214,-526) scale(1,1)"><g><path fill="none" stroke="none"/><text fill="#383838" stroke="none" font-family="Arial" font-size="13px" font-style="normal" font-weight="normal" text-decoration="none" x="980.990478515625" y="1521.5">(from mundo)</text></g></g><g transform="translate(-214,-526) scale(1,1)"><g><path fill="none" stroke="none"/><text fill="#383838" stroke="none" font-family="Arial" font-size="13px" font-style="normal" font-weight="normal" text-decoration="none" x="861" y="1554.5">«constructor»+AlmacenExcepcion(mensaje: String)</text></g></g><g transform="translate(-214,-526) scale(1,1)"><path fill="none" stroke="#000000" d="M 624 1504 L 856 1504" stroke-miterlimit="10"/></g><g transform="translate(-214,-526) scale(1,1)"><g><path fill="none" stroke="none"/><text fill="#000000" stroke="none" font-family="Arial" font-size="13px" font-style="normal" font-weight="normal" text-decoration="none" x="717.5" y="1495.5">+throws</text></g></g></g></svg>
