<svg version="1.1" xmlns="http://www.w3.org/2000/svg" xmlns:xlink="http://www.w3.org/1999/xlink" width="1716" height="1124"><defs/><g><g transform="translate(-38,-406) scale(1,1)"><rect fill="#C0C0C0" stroke="none" x="55" y="967" width="659.736328125" height="265" opacity="0.2"/></g><g transform="translate(-38,-406) scale(1,1)"><rect fill="#d6adff" stroke="none" x="48" y="960" width="659.736328125" height="265"/></g><g transform="translate(-38,-406) scale(1,1)"><path fill="none" stroke="#383838" d="M 48 960 L 707.736328125 960 L 707.736328125 1225 L 48 1225 L 48 960 Z Z" stroke-miterlimit="10"/></g><g transform="translate(-38,-406) scale(1,1)"><path fill="none" stroke="#383838" d="M 48 1000 L 707.736328125 1000" stroke-miterlimit="10"/></g><g transform="translate(-38,-406) scale(1,1)"><path fill="none" stroke="#383838" d="M 48 1023 L 707.736328125 1023" stroke-miterlimit="10"/></g><g transform="translate(-38,-406) scale(1,1)"><g><path fill="none" stroke="none"/><text fill="#383838" stroke="none" font-family="Source Sans Pro" font-size="13px" font-style="normal" font-weight="bold" text-decoration="none" x="333.61612701416016" y="979.5">InterfazAlmacen</text></g></g><g transform="translate(-38,-406) scale(1,1)"><g><path fill="none" stroke="none"/><text fill="#383838" stroke="none" font-family="Source Sans Pro" font-size="13px" font-style="normal" font-weight="normal" text-decoration="none" x="338.9916305541992" y="994.5">(from interfaz)</text></g></g><g transform="translate(-38,-406) scale(1,1)"><g><path fill="none" stroke="none"/><text fill="#383838" stroke="none" font-family="Source Sans Pro" font-size="13px" font-style="normal" font-weight="normal" text-decoration="none" x="53" y="1017.5">-almacen: Almacen</text></g></g><g transform="translate(-38,-406) scale(1,1)"><g><path fill="none" stroke="none"/><text fill="#383838" stroke="none" font-family="Source Sans Pro" font-size="13px" font-style="normal" font-weight="normal" text-decoration="none" x="53" y="1040.5">«constructor»+InterfazAlmacen(elAlmacen: Almacen)</text></g></g><g transform="translate(-38,-406) scale(1,1)"><g><path fill="none" stroke="none"/><text fill="#383838" stroke="none" font-family="Source Sans Pro" font-size="13px" font-style="normal" font-weight="normal" text-decoration="none" x="53" y="1055.5">-construirForma(): void</text></g></g><g transform="translate(-38,-406) scale(1,1)"><g><path fill="none" stroke="none"/><text fill="#383838" stroke="none" font-family="Source Sans Pro" font-size="13px" font-style="normal" font-weight="normal" text-decoration="none" x="53" y="1070.5">-construirMenu(): void</text></g></g><g transform="translate(-38,-406) scale(1,1)"><g><path fill="none" stroke="none"/><text fill="#383838" stroke="none" font-family="Source Sans Pro" font-size="13px" font-style="normal" font-weight="normal" text-decoration="none" x="53" y="1085.5">+salir(): void</text></g></g><g transform="translate(-38,-406) scale(1,1)"><g><path fill="none" stroke="none"/><text fill="#383838" stroke="none" font-family="Source Sans Pro" font-size="13px" font-style="normal" font-weight="normal" text-decoration="none" x="53" y="1100.5">+dispose(): void</text></g></g><g transform="translate(-38,-406) scale(1,1)"><g><path fill="none" stroke="none"/><text fill="#383838" stroke="none" font-family="Source Sans Pro" font-size="13px" font-style="normal" font-weight="normal" text-decoration="none" x="53" y="1115.5">+inicializarBaseDeDatos(): void</text></g></g><g transform="translate(-38,-406) scale(1,1)"><g><path fill="none" stroke="none"/><text fill="#383838" stroke="none" font-family="Source Sans Pro" font-size="13px" font-style="normal" font-weight="normal" text-decoration="none" x="53" y="1130.5">+mostrarDialogoAgregarProducto(): void</text></g></g><g transform="translate(-38,-406) scale(1,1)"><g><path fill="none" stroke="none"/><text fill="#383838" stroke="none" font-family="Source Sans Pro" font-size="13px" font-style="normal" font-weight="normal" text-decoration="none" x="53" y="1145.5">+agregarProducto(dialogo: DialogoNuevoProducto, codigo: String, nombre: String, precio: int, unidades: int): void</text></g></g><g transform="translate(-38,-406) scale(1,1)"><g><path fill="none" stroke="none"/><text fill="#383838" stroke="none" font-family="Source Sans Pro" font-size="13px" font-style="normal" font-weight="normal" text-decoration="none" x="53" y="1160.5">+refrescar(): void</text></g></g><g transform="translate(-38,-406) scale(1,1)"><g><path fill="none" stroke="none"/><text fill="#383838" stroke="none" font-family="Source Sans Pro" font-size="13px" font-style="normal" font-weight="normal" text-decoration="none" x="53" y="1175.5">+actualizarProductos(): void</text></g></g><g transform="translate(-38,-406) scale(1,1)"><g><path fill="none" stroke="none"/><text fill="#383838" stroke="none" font-family="Source Sans Pro" font-size="13px" font-style="normal" font-weight="normal" text-decoration="none" x="53" y="1190.5">+reqFuncOpcion1(): void</text></g></g><g transform="translate(-38,-406) scale(1,1)"><g><path fill="none" stroke="none"/><text fill="#383838" stroke="none" font-family="Source Sans Pro" font-size="13px" font-style="normal" font-weight="normal" text-decoration="none" x="53" y="1205.5">+reqFuncOpcion2(): void</text></g></g><g transform="translate(-38,-406) scale(1,1)"><g><path fill="none" stroke="none"/><text fill="#383838" stroke="none" font-family="Source Sans Pro" font-size="13px" font-style="normal" font-weight="normal" text-decoration="none" x="53" y="1220.5">+main(args: String[*]): void</text><path fill="none" stroke="#383838" d="M 53 1220.5 L 199.3411102294922 1220.5" stroke-miterlimit="10"/></g></g><g transform="translate(-38,-406) scale(1,1)"><rect fill="#C0C0C0" stroke="none" x="903" y="831" width="448" height="130" opacity="0.2"/></g><g transform="translate(-38,-406) scale(1,1)"><rect fill="#d6adff" stroke="none" x="896" y="824" width="448" height="130"/></g><g transform="translate(-38,-406) scale(1,1)"><path fill="none" stroke="#383838" d="M 896 824 L 1344 824 L 1344 954 L 896 954 L 896 824 Z Z" stroke-miterlimit="10"/></g><g transform="translate(-38,-406) scale(1,1)"><path fill="none" stroke="#383838" d="M 896 864 L 1344 864" stroke-miterlimit="10"/></g><g transform="translate(-38,-406) scale(1,1)"><path fill="none" stroke="#383838" d="M 896 917 L 1344 917" stroke-miterlimit="10"/></g><g transform="translate(-38,-406) scale(1,1)"><g><path fill="none" stroke="none"/><text fill="#383838" stroke="none" font-family="Source Sans Pro" font-size="13px" font-style="normal" font-weight="bold" text-decoration="none" x="1051.1194534301758" y="843.5">BarraMenuAdministrador</text></g></g><g transform="translate(-38,-406) scale(1,1)"><g><path fill="none" stroke="none"/><text fill="#383838" stroke="none" font-family="Source Sans Pro" font-size="13px" font-style="normal" font-weight="normal" text-decoration="none" x="1081.1234664916992" y="858.5">(from interfaz)</text></g></g><g transform="translate(-38,-406) scale(1,1)"><g><path fill="none" stroke="none"/><text fill="#383838" stroke="none" font-family="Source Sans Pro" font-size="13px" font-style="normal" font-weight="normal" text-decoration="none" x="901" y="881.5">-SALIR: String = "salir" {readOnly}</text><path fill="none" stroke="#383838" d="M 901 881.5 L 1080.6991424560547 881.5" stroke-miterlimit="10"/></g></g><g transform="translate(-38,-406) scale(1,1)"><g><path fill="none" stroke="none"/><text fill="#383838" stroke="none" font-family="Source Sans Pro" font-size="13px" font-style="normal" font-weight="normal" text-decoration="none" x="901" y="896.5">-menuAdministrador: JMenu</text></g></g><g transform="translate(-38,-406) scale(1,1)"><g><path fill="none" stroke="none"/><text fill="#383838" stroke="none" font-family="Source Sans Pro" font-size="13px" font-style="normal" font-weight="normal" text-decoration="none" x="901" y="911.5">-itemSalir: JMenuItem</text></g></g><g transform="translate(-38,-406) scale(1,1)"><g><path fill="none" stroke="none"/><text fill="#383838" stroke="none" font-family="Source Sans Pro" font-size="13px" font-style="normal" font-weight="normal" text-decoration="none" x="901" y="934.5">«constructor»+BarraMenuAdministrador(ia: InterfazAlmacen)</text></g></g><g transform="translate(-38,-406) scale(1,1)"><g><path fill="none" stroke="none"/><text fill="#383838" stroke="none" font-family="Source Sans Pro" font-size="13px" font-style="normal" font-weight="normal" text-decoration="none" x="901" y="949.5">+actionPerformed(evento: ActionEvent): void</text></g></g><g transform="translate(-38,-406) scale(1,1)"><path fill="none" stroke="#383838" d="M 896 888 L 377 888 L 377 960" stroke-miterlimit="10"/></g><g transform="translate(-38,-406) scale(1,1)"><path fill="none" stroke="#383838" d="M 372.790482243984 949.8373251423759 L 377 960 L 381.209517756016 949.8373251423759" stroke-miterlimit="10"/></g><g transform="translate(-38,-406) scale(1,1)"><g><path fill="none" stroke="none"/><text fill="#383838" stroke="none" font-family="Arial" font-size="13px" font-style="normal" font-weight="normal" text-decoration="none" x="381.5" y="939.5">-ventanaPrincipal</text></g></g><g transform="translate(-38,-406) scale(1,1)"><path fill="none" stroke="#383838" d="M 377 960 L 377 888 L 896 888" stroke-miterlimit="10"/></g><g transform="translate(-38,-406) scale(1,1)"><path fill="none" stroke="#383838" d="M 885.8373251423759 892.209517756016 L 896 888 L 885.8373251423758 883.790482243984" stroke-miterlimit="10"/></g><g transform="translate(-38,-406) scale(1,1)"><g><path fill="none" stroke="none"/><text fill="#383838" stroke="none" font-family="Arial" font-size="13px" font-style="normal" font-weight="normal" text-decoration="none" x="836.5" y="879.5">-barraMenu</text></g></g><g transform="translate(-38,-406) scale(1,1)"><rect fill="#C0C0C0" stroke="none" x="903" y="671" width="448" height="87" opacity="0.2"/></g><g transform="translate(-38,-406) scale(1,1)"><rect fill="#d6adff" stroke="none" x="896" y="664" width="448" height="87"/></g><g transform="translate(-38,-406) scale(1,1)"><path fill="none" stroke="#383838" d="M 896 664 L 1344 664 L 1344 751 L 896 751 L 896 664 Z Z" stroke-miterlimit="10"/></g><g transform="translate(-38,-406) scale(1,1)"><path fill="none" stroke="#383838" d="M 896 704 L 1344 704" stroke-miterlimit="10"/></g><g transform="translate(-38,-406) scale(1,1)"><path fill="none" stroke="#383838" d="M 896 714 L 1344 714" stroke-miterlimit="10"/></g><g transform="translate(-38,-406) scale(1,1)"><g><path fill="none" stroke="none"/><text fill="#383838" stroke="none" font-family="Source Sans Pro" font-size="13px" font-style="normal" font-weight="bold" text-decoration="none" x="1056.4364624023438" y="683.5">DialogoNuevoProducto</text></g></g><g transform="translate(-38,-406) scale(1,1)"><g><path fill="none" stroke="none"/><text fill="#383838" stroke="none" font-family="Source Sans Pro" font-size="13px" font-style="normal" font-weight="normal" text-decoration="none" x="1081.1234664916992" y="698.5">(from interfaz)</text></g></g><g transform="translate(-38,-406) scale(1,1)"><g><path fill="none" stroke="none"/><text fill="#383838" stroke="none" font-family="Source Sans Pro" font-size="13px" font-style="normal" font-weight="normal" text-decoration="none" x="901" y="731.5">«constructor»+DialogoNuevoProducto(ia: InterfazAlmacen)</text></g></g><g transform="translate(-38,-406) scale(1,1)"><g><path fill="none" stroke="none"/><text fill="#383838" stroke="none" font-family="Source Sans Pro" font-size="13px" font-style="normal" font-weight="normal" text-decoration="none" x="901" y="746.5">+agregarProducto(): void</text></g></g><g transform="translate(-38,-406) scale(1,1)"><path fill="none" stroke="#383838" d="M 896 704 L 184 704 L 184 960" stroke-miterlimit="10"/></g><g transform="translate(-38,-406) scale(1,1)"><path fill="none" stroke="#383838" d="M 179.790482243984 949.8373251423759 L 184 960 L 188.209517756016 949.8373251423759" stroke-miterlimit="10"/></g><g transform="translate(-38,-406) scale(1,1)"><g><path fill="none" stroke="none"/><text fill="#383838" stroke="none" font-family="Arial" font-size="13px" font-style="normal" font-weight="normal" text-decoration="none" x="198.5" y="940.5">-ventanaPrincipal</text></g></g><g transform="translate(-38,-406) scale(1,1)"><rect fill="#C0C0C0" stroke="none" x="903" y="1007" width="448" height="145" opacity="0.2"/></g><g transform="translate(-38,-406) scale(1,1)"><rect fill="#d6adff" stroke="none" x="896" y="1000" width="448" height="145"/></g><g transform="translate(-38,-406) scale(1,1)"><path fill="none" stroke="#383838" d="M 896 1000 L 1344 1000 L 1344 1145 L 896 1145 L 896 1000 Z Z" stroke-miterlimit="10"/></g><g transform="translate(-38,-406) scale(1,1)"><path fill="none" stroke="#383838" d="M 896 1040 L 1344 1040" stroke-miterlimit="10"/></g><g transform="translate(-38,-406) scale(1,1)"><path fill="none" stroke="#383838" d="M 896 1108 L 1344 1108" stroke-miterlimit="10"/></g><g transform="translate(-38,-406) scale(1,1)"><g><path fill="none" stroke="none"/><text fill="#383838" stroke="none" font-family="Source Sans Pro" font-size="13px" font-style="normal" font-weight="bold" text-decoration="none" x="1043.2544403076172" y="1019.5">PanelBotonesAdministrador</text></g></g><g transform="translate(-38,-406) scale(1,1)"><g><path fill="none" stroke="none"/><text fill="#383838" stroke="none" font-family="Source Sans Pro" font-size="13px" font-style="normal" font-weight="normal" text-decoration="none" x="1081.1234664916992" y="1034.5">(from interfaz)</text></g></g><g transform="translate(-38,-406) scale(1,1)"><g><path fill="none" stroke="none"/><text fill="#383838" stroke="none" font-family="Source Sans Pro" font-size="13px" font-style="normal" font-weight="normal" text-decoration="none" x="901" y="1057.5">-AGREGAR_PRODUCTO: String = "agregarProducto" {readOnly}</text><path fill="none" stroke="#383838" d="M 901 1057.5 L 1239.3772583007812 1057.5" stroke-miterlimit="10"/></g></g><g transform="translate(-38,-406) scale(1,1)"><g><path fill="none" stroke="none"/><text fill="#383838" stroke="none" font-family="Source Sans Pro" font-size="13px" font-style="normal" font-weight="normal" text-decoration="none" x="901" y="1072.5">-REFRESCAR: String = "refrescar" {readOnly}</text><path fill="none" stroke="#383838" d="M 901 1072.5 L 1138.6142272949219 1072.5" stroke-miterlimit="10"/></g></g><g transform="translate(-38,-406) scale(1,1)"><g><path fill="none" stroke="none"/><text fill="#383838" stroke="none" font-family="Source Sans Pro" font-size="13px" font-style="normal" font-weight="normal" text-decoration="none" x="901" y="1087.5">-botonAgregarProducto: JButton</text></g></g><g transform="translate(-38,-406) scale(1,1)"><g><path fill="none" stroke="none"/><text fill="#383838" stroke="none" font-family="Source Sans Pro" font-size="13px" font-style="normal" font-weight="normal" text-decoration="none" x="901" y="1102.5">-botonRefrescar: JButton</text></g></g><g transform="translate(-38,-406) scale(1,1)"><g><path fill="none" stroke="none"/><text fill="#383838" stroke="none" font-family="Source Sans Pro" font-size="13px" font-style="normal" font-weight="normal" text-decoration="none" x="901" y="1125.5">«constructor»+PanelBotonesAdministrador(ia: InterfazAlmacen)</text></g></g><g transform="translate(-38,-406) scale(1,1)"><g><path fill="none" stroke="none"/><text fill="#383838" stroke="none" font-family="Source Sans Pro" font-size="13px" font-style="normal" font-weight="normal" text-decoration="none" x="901" y="1140.5">+actionPerformed(evento: ActionEvent): void</text></g></g><g transform="translate(-38,-406) scale(1,1)"><path fill="none" stroke="#383838" d="M 708 1083 L 896 1083" stroke-miterlimit="10"/></g><g transform="translate(-38,-406) scale(1,1)"><path fill="none" stroke="#383838" d="M 885.8373251423759 1087.2095177560159 L 896 1083 L 885.8373251423758 1078.7904822439841" stroke-miterlimit="10"/></g><g transform="translate(-38,-406) scale(1,1)"><g><path fill="none" stroke="none"/><text fill="#383838" stroke="none" font-family="Arial" font-size="13px" font-style="normal" font-weight="normal" text-decoration="none" x="807.5" y="1075.5">-panelBotones</text></g></g><g transform="translate(-38,-406) scale(1,1)"><path fill="none" stroke="#383838" d="M 896 1083 L 708 1083" stroke-miterlimit="10"/></g><g transform="translate(-38,-406) scale(1,1)"><path fill="none" stroke="#383838" d="M 718.1626748576241 1078.7904822439841 L 708 1083 L 718.1626748576241 1087.2095177560159" stroke-miterlimit="10"/></g><g transform="translate(-38,-406) scale(1,1)"><g><path fill="none" stroke="none"/><text fill="#383838" stroke="none" font-family="Arial" font-size="13px" font-style="normal" font-weight="normal" text-decoration="none" x="718.5" y="1107.5">-ventanaPrincipal</text></g></g><g transform="translate(-38,-406) scale(1,1)"><rect fill="#C0C0C0" stroke="none" x="903" y="423" width="448" height="145" opacity="0.2"/></g><g transform="translate(-38,-406) scale(1,1)"><rect fill="#d6adff" stroke="none" x="896" y="416" width="448" height="145"/></g><g transform="translate(-38,-406) scale(1,1)"><path fill="none" stroke="#383838" d="M 896 416 L 1344 416 L 1344 561 L 896 561 L 896 416 Z Z" stroke-miterlimit="10"/></g><g transform="translate(-38,-406) scale(1,1)"><path fill="none" stroke="#383838" d="M 896 456 L 1344 456" stroke-miterlimit="10"/></g><g transform="translate(-38,-406) scale(1,1)"><path fill="none" stroke="#383838" d="M 896 524 L 1344 524" stroke-miterlimit="10"/></g><g transform="translate(-38,-406) scale(1,1)"><g><path fill="none" stroke="none"/><text fill="#383838" stroke="none" font-family="Source Sans Pro" font-size="13px" font-style="normal" font-weight="bold" text-decoration="none" x="1039.5169372558594" y="435.5">PanelBotonesNuevoProducto</text></g></g><g transform="translate(-38,-406) scale(1,1)"><g><path fill="none" stroke="none"/><text fill="#383838" stroke="none" font-family="Source Sans Pro" font-size="13px" font-style="normal" font-weight="normal" text-decoration="none" x="1081.1234664916992" y="450.5">(from interfaz)</text></g></g><g transform="translate(-38,-406) scale(1,1)"><g><path fill="none" stroke="none"/><text fill="#383838" stroke="none" font-family="Source Sans Pro" font-size="13px" font-style="normal" font-weight="normal" text-decoration="none" x="901" y="473.5">-AGREGAR: String = "agregar" {readOnly}</text><path fill="none" stroke="#383838" d="M 901 473.5 L 1119.9071807861328 473.5" stroke-miterlimit="10"/></g></g><g transform="translate(-38,-406) scale(1,1)"><g><path fill="none" stroke="none"/><text fill="#383838" stroke="none" font-family="Source Sans Pro" font-size="13px" font-style="normal" font-weight="normal" text-decoration="none" x="901" y="488.5">-CANCELAR: String = "cancelar" {readOnly}</text><path fill="none" stroke="#383838" d="M 901 488.5 L 1130.8401947021484 488.5" stroke-miterlimit="10"/></g></g><g transform="translate(-38,-406) scale(1,1)"><g><path fill="none" stroke="none"/><text fill="#383838" stroke="none" font-family="Source Sans Pro" font-size="13px" font-style="normal" font-weight="normal" text-decoration="none" x="901" y="503.5">-botonAgregar: JButton</text></g></g><g transform="translate(-38,-406) scale(1,1)"><g><path fill="none" stroke="none"/><text fill="#383838" stroke="none" font-family="Source Sans Pro" font-size="13px" font-style="normal" font-weight="normal" text-decoration="none" x="901" y="518.5">-botonCancelar: JButton</text></g></g><g transform="translate(-38,-406) scale(1,1)"><g><path fill="none" stroke="none"/><text fill="#383838" stroke="none" font-family="Source Sans Pro" font-size="13px" font-style="normal" font-weight="normal" text-decoration="none" x="901" y="541.5">«constructor»+PanelBotonesNuevoProducto(dnp: DialogoNuevoProducto)</text></g></g><g transform="translate(-38,-406) scale(1,1)"><g><path fill="none" stroke="none"/><text fill="#383838" stroke="none" font-family="Source Sans Pro" font-size="13px" font-style="normal" font-weight="normal" text-decoration="none" x="901" y="556.5">+actionPerformed(evento: ActionEvent): void</text></g></g><g transform="translate(-38,-406) scale(1,1)"><path fill="none" stroke="#000000" d="M 1120 663 L 1120 562" stroke-miterlimit="10"/></g><g transform="translate(-38,-406) scale(1,1)"><path fill="none" stroke="#000000" d="M 1124.2095177560159 572.1626748576241 L 1120 562 L 1115.7904822439841 572.1626748576241" stroke-miterlimit="10"/></g><g transform="translate(-38,-406) scale(1,1)"><g><path fill="none" stroke="none"/><text fill="#000000" stroke="none" font-family="Arial" font-size="13px" font-style="normal" font-weight="normal" text-decoration="none" x="1063.5" y="593.5">-panelBotones</text></g></g><g transform="translate(-38,-406) scale(1,1)"><path fill="none" stroke="#000000" d="M 1120 562 L 1120 663" stroke-miterlimit="10"/></g><g transform="translate(-38,-406) scale(1,1)"><path fill="none" stroke="#000000" d="M 1115.7904822439841 652.8373251423759 L 1120 663 L 1124.2095177560159 652.8373251423759" stroke-miterlimit="10"/></g><g transform="translate(-38,-406) scale(1,1)"><g><path fill="none" stroke="none"/><text fill="#000000" stroke="none" font-family="Arial" font-size="13px" font-style="normal" font-weight="normal" text-decoration="none" x="1111.5" y="643.5">-dialogo</text></g></g><g transform="translate(-38,-406) scale(1,1)"><rect fill="#C0C0C0" stroke="none" x="895" y="1367" width="456" height="160" opacity="0.2"/></g><g transform="translate(-38,-406) scale(1,1)"><rect fill="#d6adff" stroke="none" x="888" y="1360" width="456" height="160"/></g><g transform="translate(-38,-406) scale(1,1)"><path fill="none" stroke="#383838" d="M 888 1360 L 1344 1360 L 1344 1520 L 888 1520 L 888 1360 Z Z" stroke-miterlimit="10"/></g><g transform="translate(-38,-406) scale(1,1)"><path fill="none" stroke="#383838" d="M 888 1400 L 1344 1400" stroke-miterlimit="10"/></g><g transform="translate(-38,-406) scale(1,1)"><path fill="none" stroke="#383838" d="M 888 1468 L 1344 1468" stroke-miterlimit="10"/></g><g transform="translate(-38,-406) scale(1,1)"><g><path fill="none" stroke="none"/><text fill="#383838" stroke="none" font-family="Source Sans Pro" font-size="13px" font-style="normal" font-weight="bold" text-decoration="none" x="1050.616439819336" y="1379.5">PanelExtensionAlmacen</text></g></g><g transform="translate(-38,-406) scale(1,1)"><g><path fill="none" stroke="none"/><text fill="#383838" stroke="none" font-family="Source Sans Pro" font-size="13px" font-style="normal" font-weight="normal" text-decoration="none" x="1077.1234664916992" y="1394.5">(from interfaz)</text></g></g><g transform="translate(-38,-406) scale(1,1)"><g><path fill="none" stroke="none"/><text fill="#383838" stroke="none" font-family="Source Sans Pro" font-size="13px" font-style="normal" font-weight="normal" text-decoration="none" x="893" y="1417.5">-OPCION_1: String = "opcion 1" {readOnly}</text></g></g><g transform="translate(-38,-406) scale(1,1)"><g><path fill="none" stroke="none"/><text fill="#383838" stroke="none" font-family="Source Sans Pro" font-size="13px" font-style="normal" font-weight="normal" text-decoration="none" x="893" y="1432.5">-OPCION_2: String = "opcion 2" {readOnly}</text></g></g><g transform="translate(-38,-406) scale(1,1)"><g><path fill="none" stroke="none"/><text fill="#383838" stroke="none" font-family="Source Sans Pro" font-size="13px" font-style="normal" font-weight="normal" text-decoration="none" x="893" y="1447.5">-botonOpcion1: JButton</text></g></g><g transform="translate(-38,-406) scale(1,1)"><g><path fill="none" stroke="none"/><text fill="#383838" stroke="none" font-family="Source Sans Pro" font-size="13px" font-style="normal" font-weight="normal" text-decoration="none" x="893" y="1462.5">-botonOpcion2: JButton</text></g></g><g transform="translate(-38,-406) scale(1,1)"><g><path fill="none" stroke="none"/><text fill="#383838" stroke="none" font-family="Source Sans Pro" font-size="13px" font-style="normal" font-weight="normal" text-decoration="none" x="893" y="1485.5">«constructor»+PanelExtensionAlmacen(ia: InterfazAlmacen)</text></g></g><g transform="translate(-38,-406) scale(1,1)"><g><path fill="none" stroke="none"/><text fill="#383838" stroke="none" font-family="Source Sans Pro" font-size="13px" font-style="normal" font-weight="normal" text-decoration="none" x="893" y="1500.5">-inicializar(): void</text></g></g><g transform="translate(-38,-406) scale(1,1)"><g><path fill="none" stroke="none"/><text fill="#383838" stroke="none" font-family="Source Sans Pro" font-size="13px" font-style="normal" font-weight="normal" text-decoration="none" x="893" y="1515.5">+actionPerformed(event: ActionEvent): void</text></g></g><g transform="translate(-38,-406) scale(1,1)"><path fill="none" stroke="#383838" d="M 184 1225 L 184 1440 L 888 1440" stroke-miterlimit="10"/></g><g transform="translate(-38,-406) scale(1,1)"><path fill="none" stroke="#383838" d="M 877.8373251423759 1444.2095177560159 L 888 1440 L 877.8373251423758 1435.7904822439841" stroke-miterlimit="10"/></g><g transform="translate(-38,-406) scale(1,1)"><g><path fill="none" stroke="none"/><text fill="#000000" stroke="none" font-family="Arial" font-size="13px" font-style="normal" font-weight="normal" text-decoration="none" x="791.5" y="1427.5">-panelExtension</text></g></g><g transform="translate(-38,-406) scale(1,1)"><path fill="none" stroke="#383838" d="M 888 1440 L 184 1440 L 184 1225" stroke-miterlimit="10"/></g><g transform="translate(-38,-406) scale(1,1)"><path fill="none" stroke="#383838" d="M 188.209517756016 1235.162674857624 L 184 1225 L 179.790482243984 1235.162674857624" stroke-miterlimit="10"/></g><g transform="translate(-38,-406) scale(1,1)"><g><path fill="none" stroke="none"/><text fill="#383838" stroke="none" font-family="Arial" font-size="13px" font-style="normal" font-weight="normal" text-decoration="none" x="198.5" y="1259.5">-ventana</text></g></g><g transform="translate(-38,-406) scale(1,1)"><rect fill="#C0C0C0" stroke="none" x="895" y="1207" width="456" height="115" opacity="0.2"/></g><g transform="translate(-38,-406) scale(1,1)"><rect fill="#d6adff" stroke="none" x="888" y="1200" width="456" height="115"/></g><g transform="translate(-38,-406) scale(1,1)"><path fill="none" stroke="#383838" d="M 888 1200 L 1344 1200 L 1344 1315 L 888 1315 L 888 1200 Z Z" stroke-miterlimit="10"/></g><g transform="translate(-38,-406) scale(1,1)"><path fill="none" stroke="#383838" d="M 888 1240 L 1344 1240" stroke-miterlimit="10"/></g><g transform="translate(-38,-406) scale(1,1)"><path fill="none" stroke="#383838" d="M 888 1263 L 1344 1263" stroke-miterlimit="10"/></g><g transform="translate(-38,-406) scale(1,1)"><g><path fill="none" stroke="none"/><text fill="#383838" stroke="none" font-family="Source Sans Pro" font-size="13px" font-style="normal" font-weight="bold" text-decoration="none" x="1033.8139419555664" y="1219.5">PanelProductosAdministrador</text></g></g><g transform="translate(-38,-406) scale(1,1)"><g><path fill="none" stroke="none"/><text fill="#383838" stroke="none" font-family="Source Sans Pro" font-size="13px" font-style="normal" font-weight="normal" text-decoration="none" x="1077.1234664916992" y="1234.5">(from interfaz)</text></g></g><g transform="translate(-38,-406) scale(1,1)"><g><path fill="none" stroke="none"/><text fill="#383838" stroke="none" font-family="Source Sans Pro" font-size="13px" font-style="normal" font-weight="normal" text-decoration="none" x="893" y="1257.5">-listaProductos: JList</text></g></g><g transform="translate(-38,-406) scale(1,1)"><g><path fill="none" stroke="none"/><text fill="#383838" stroke="none" font-family="Source Sans Pro" font-size="13px" font-style="normal" font-weight="normal" text-decoration="none" x="893" y="1280.5">«constructor»+PanelProductosAdministrador()</text></g></g><g transform="translate(-38,-406) scale(1,1)"><g><path fill="none" stroke="none"/><text fill="#383838" stroke="none" font-family="Source Sans Pro" font-size="13px" font-style="normal" font-weight="normal" text-decoration="none" x="893" y="1295.5">+darProductoSeleccionado(): Producto</text></g></g><g transform="translate(-38,-406) scale(1,1)"><g><path fill="none" stroke="none"/><text fill="#383838" stroke="none" font-family="Source Sans Pro" font-size="13px" font-style="normal" font-weight="normal" text-decoration="none" x="893" y="1310.5">+actualizarProductos(productos: ArrayList): void</text></g></g><g transform="translate(-38,-406) scale(1,1)"><path fill="none" stroke="#383838" d="M 376 1225 L 376 1264 L 888 1264" stroke-miterlimit="10"/></g><g transform="translate(-38,-406) scale(1,1)"><path fill="none" stroke="#383838" d="M 877.8373251423759 1268.2095177560159 L 888 1264 L 877.8373251423758 1259.7904822439841" stroke-miterlimit="10"/></g><g transform="translate(-38,-406) scale(1,1)"><g><path fill="none" stroke="none"/><text fill="#383838" stroke="none" font-family="Arial" font-size="13px" font-style="normal" font-weight="normal" text-decoration="none" x="774.5" y="1251.5">-panelProductos</text></g></g><g transform="translate(-38,-406) scale(1,1)"><rect fill="#C0C0C0" stroke="none" x="1463" y="599" width="288" height="250" opacity="0.2"/></g><g transform="translate(-38,-406) scale(1,1)"><rect fill="#d6adff" stroke="none" x="1456" y="592" width="288" height="250"/></g><g transform="translate(-38,-406) scale(1,1)"><path fill="none" stroke="#383838" d="M 1456 592 L 1744 592 L 1744 842 L 1456 842 L 1456 592 Z Z" stroke-miterlimit="10"/></g><g transform="translate(-38,-406) scale(1,1)"><path fill="none" stroke="#383838" d="M 1456 632 L 1744 632" stroke-miterlimit="10"/></g><g transform="translate(-38,-406) scale(1,1)"><path fill="none" stroke="#383838" d="M 1456 760 L 1744 760" stroke-miterlimit="10"/></g><g transform="translate(-38,-406) scale(1,1)"><g><path fill="none" stroke="none"/><text fill="#383838" stroke="none" font-family="Source Sans Pro" font-size="13px" font-style="normal" font-weight="bold" text-decoration="none" x="1526.3159484863281" y="611.5">PanelDatosNuevoProducto</text></g></g><g transform="translate(-38,-406) scale(1,1)"><g><path fill="none" stroke="none"/><text fill="#383838" stroke="none" font-family="Source Sans Pro" font-size="13px" font-style="normal" font-weight="normal" text-decoration="none" x="1561.1234664916992" y="626.5">(from interfaz)</text></g></g><g transform="translate(-38,-406) scale(1,1)"><g><path fill="none" stroke="none"/><text fill="#383838" stroke="none" font-family="Source Sans Pro" font-size="13px" font-style="normal" font-weight="normal" text-decoration="none" x="1461" y="649.5">-txtCodigo: JTextField</text></g></g><g transform="translate(-38,-406) scale(1,1)"><g><path fill="none" stroke="none"/><text fill="#383838" stroke="none" font-family="Source Sans Pro" font-size="13px" font-style="normal" font-weight="normal" text-decoration="none" x="1461" y="664.5">-txtNombre: JTextField</text></g></g><g transform="translate(-38,-406) scale(1,1)"><g><path fill="none" stroke="none"/><text fill="#383838" stroke="none" font-family="Source Sans Pro" font-size="13px" font-style="normal" font-weight="normal" text-decoration="none" x="1461" y="679.5">-txtPrecio: JTextField</text></g></g><g transform="translate(-38,-406) scale(1,1)"><g><path fill="none" stroke="none"/><text fill="#383838" stroke="none" font-family="Source Sans Pro" font-size="13px" font-style="normal" font-weight="normal" text-decoration="none" x="1461" y="694.5">-txtUnidades: JTextField</text></g></g><g transform="translate(-38,-406) scale(1,1)"><g><path fill="none" stroke="none"/><text fill="#383838" stroke="none" font-family="Source Sans Pro" font-size="13px" font-style="normal" font-weight="normal" text-decoration="none" x="1461" y="709.5">-etiquetaNombre: JLabel</text></g></g><g transform="translate(-38,-406) scale(1,1)"><g><path fill="none" stroke="none"/><text fill="#383838" stroke="none" font-family="Source Sans Pro" font-size="13px" font-style="normal" font-weight="normal" text-decoration="none" x="1461" y="724.5">-etiquetaPrecio: JLabel</text></g></g><g transform="translate(-38,-406) scale(1,1)"><g><path fill="none" stroke="none"/><text fill="#383838" stroke="none" font-family="Source Sans Pro" font-size="13px" font-style="normal" font-weight="normal" text-decoration="none" x="1461" y="739.5">-etiquetaUnidades: JLabel</text></g></g><g transform="translate(-38,-406) scale(1,1)"><g><path fill="none" stroke="none"/><text fill="#383838" stroke="none" font-family="Source Sans Pro" font-size="13px" font-style="normal" font-weight="normal" text-decoration="none" x="1461" y="754.5">-etiquetaCodigo: JLabel</text></g></g><g transform="translate(-38,-406) scale(1,1)"><g><path fill="none" stroke="none"/><text fill="#383838" stroke="none" font-family="Source Sans Pro" font-size="13px" font-style="normal" font-weight="normal" text-decoration="none" x="1461" y="777.5">«constructor»+PanelDatosNuevoProducto()</text></g></g><g transform="translate(-38,-406) scale(1,1)"><g><path fill="none" stroke="none"/><text fill="#383838" stroke="none" font-family="Source Sans Pro" font-size="13px" font-style="normal" font-weight="normal" text-decoration="none" x="1461" y="792.5">+darCodigo(): String</text></g></g><g transform="translate(-38,-406) scale(1,1)"><g><path fill="none" stroke="none"/><text fill="#383838" stroke="none" font-family="Source Sans Pro" font-size="13px" font-style="normal" font-weight="normal" text-decoration="none" x="1461" y="807.5">+darNombre(): String</text></g></g><g transform="translate(-38,-406) scale(1,1)"><g><path fill="none" stroke="none"/><text fill="#383838" stroke="none" font-family="Source Sans Pro" font-size="13px" font-style="normal" font-weight="normal" text-decoration="none" x="1461" y="822.5">+darPrecio(): String</text></g></g><g transform="translate(-38,-406) scale(1,1)"><g><path fill="none" stroke="none"/><text fill="#383838" stroke="none" font-family="Source Sans Pro" font-size="13px" font-style="normal" font-weight="normal" text-decoration="none" x="1461" y="837.5">+darUnidades(): String</text></g></g><g transform="translate(-38,-406) scale(1,1)"><path fill="none" stroke="#000000" d="M 1344 715 L 1456 715" stroke-miterlimit="10"/></g><g transform="translate(-38,-406) scale(1,1)"><path fill="none" stroke="#000000" d="M 1445.837325142376 719.209517756016 L 1456 715 L 1445.837325142376 710.790482243984" stroke-miterlimit="10"/></g><g transform="translate(-38,-406) scale(1,1)"><g><path fill="none" stroke="none"/><text fill="#000000" stroke="none" font-family="Arial" font-size="13px" font-style="normal" font-weight="normal" text-decoration="none" x="1366.5" y="707.5">-panelDatos</text></g></g></g></svg>
